<?xml version="1.0" encoding="utf-8"?>
<!-- Generator: Adobe Illustrator 21.0.2, SVG Export Plug-In . SVG Version: 6.00 Build 0)  -->
<svg version="1.1" id="Layer_1" xmlns="http://www.w3.org/2000/svg" xmlns:xlink="http://www.w3.org/1999/xlink" x="0px" y="0px"
	 viewBox="0 0 512 512" style="enable-background:new 0 0 512 512;" xml:space="preserve">
<style type="text/css">
	.st0{fill:#00A38D;}
</style>
<g>
	<g>
		<path class="st0" d="M256,0C114.5,0,0,114.5,0,256c0,141.5,114.5,256,256,256c141.5,0,256-114.5,256-256C512,114.5,397.5,0,256,0z
			 M256,477.9c-122.3,0-221.9-99.5-221.9-221.9S133.7,34.1,256,34.1S477.9,133.7,477.9,256S378.3,477.9,256,477.9z"/>
	</g>
</g>
<g>
	<g>
		<path class="st0" d="M391.5,161.9c-6.7-6.7-17.5-6.7-24.1,0L215.4,313.9L144.6,243c-6.7-6.7-17.5-6.7-24.1,0
			c-6.7,6.7-6.7,17.5,0,24.1l82.9,82.9c6.7,6.7,17.5,6.7,24.1,0l164-164C398.2,179.4,398.2,168.6,391.5,161.9z"/>
	</g>
</g>
</svg>
