<?xml version="1.0" encoding="utf-8"?>
<!-- Generator: Adobe Illustrator 21.0.2, SVG Export Plug-In . SVG Version: 6.00 Build 0)  -->
<svg version="1.1" id="_x37_40546cb-34ca-4331-8221-ac3d3fc9ee67"
	 xmlns="http://www.w3.org/2000/svg" xmlns:xlink="http://www.w3.org/1999/xlink" x="0px" y="0px" viewBox="0 0 1120.6 862.5"
	 style="enable-background:new 0 0 1120.6 862.5;" xml:space="preserve">
<style type="text/css">
	.st0{opacity:0.1;fill:#6C63FF;enable-background:new    ;}
	.st1{fill:#D6D6E3;}
	.st2{fill:#AEBEE1;}
	.st3{fill:#535461;}
	.st4{opacity:0.1;enable-background:new    ;}
	.st5{fill:#E3EDF9;}
	.st6{fill:url(#SVGID_1_);}
	.st7{fill:#F8B9BF;}
	.st8{fill:#D9DFE8;}
	.st9{fill:#6C63FF;}
	.st10{opacity:0.1;}
	.st11{fill:#68739D;}
	.st12{fill:#6394E2;}
	.st13{fill:#B96B6B;}
	.st14{fill:none;stroke:#535461;stroke-width:2;stroke-miterlimit:10;}
	.st15{fill:url(#SVGID_2_);}
	.st16{fill:#FA595F;}
	.st17{fill:#F37291;}
	.st18{fill:#96A2D0;}
</style>
<title>co-working</title>
<path class="st0" d="M1050,488.3c-41.3,62.1-30.8,148.4-10.1,216.8c7,22.9,14.9,47.1,10.2,72.4c-5.8,30.9-29.2,54.8-53.2,68.1
	c-43.8,24.3-94.6,22.3-132.3-5.2c-32.6-23.8-54.7-64.4-88-87c-55.6-37.7-129.8-17.5-193.9,14.9c-45.3,22.9-95.1,52.1-138.1,33.8
	c-30.2-12.9-49.8-47.6-59.6-85.2c-4.7-18.1-7.8-37.8-17.8-51.8c-6-8.3-14-14-22.3-18.6c-75.7-42.7-175.6-11.1-248.8-59.2
	c-49.4-32.4-78.8-97.5-89.8-166.7S0.7,277.9,8,205.5C13.2,154.1,20.7,99,49.4,57.8c30.4-43.6,79.6-62.2,123-57S254,32,287.2,63.3
	c41.5,39,79.4,88.5,132.1,102c35.9,9.2,74.6,0.6,112.3-4c63.1-7.6,125.6-3.4,187.7,1.6c59.5,4.8,119.3,10.4,175.2,30.8
	c39.5,14.4,70.3,43.1,107.4,62.2c24.2,12.5,51.1,14.6,73.7,31c27.9,20.1,52.5,56.7,42.8,101.8C1109.2,431.7,1071.9,455.3,1050,488.3
	z"/>
<rect x="880.8" y="256.4" class="st0" width="40.9" height="61.9"/>
<rect x="884.8" y="262.4" class="st0" width="32.9" height="49.9"/>
<rect x="797.8" y="213.4" class="st0" width="62.8" height="61.9"/>
<rect x="803.9" y="219.4" class="st0" width="50.6" height="49.9"/>
<rect x="64.6" y="121.3" class="st0" width="192" height="5.1"/>
<rect x="64.6" y="146.3" class="st0" width="192" height="5.1"/>
<rect x="388.4" y="452.6" class="st1" width="19.6" height="219.1"/>
<path class="st2" d="M980.8,475.6V273.5c0-11.7,9.5-21.2,21.3-21.2l0,0c11.7,0,21.2,9.5,21.2,21.2v244.6c0,11.7-9.5,21.2-21.2,21.2
	l0,0H870.4c-11.7,0-21.2-9.5-21.2-21.2l0,0l0,0c0-11.7,9.5-21.2,21.2-21.2l0,0h89.2C971.3,496.9,980.8,487.4,980.8,475.6z"/>
<path class="st3" d="M980.8,475.6V273.5c0-11.7,9.5-21.2,21.3-21.2l0,0c11.7,0,21.2,9.5,21.2,21.2v244.6c0,11.7-9.5,21.2-21.2,21.2
	l0,0H870.4c-11.7,0-21.2-9.5-21.2-21.2l0,0l0,0c0-11.7,9.5-21.2,21.2-21.2l0,0h89.2C971.3,496.9,980.8,487.4,980.8,475.6z"/>
<path class="st1" d="M849.2,517c0.6-11.3,9.9-20.1,21.2-20.1h89.2c11.7,0,21.2-9.5,21.2-21.2l0,0V273.5c0-11.3,8.9-20.7,20.2-21.2
	V517H849.2z"/>
<path class="st2" d="M192.5,482.5V280.3c0-11.7-9.5-21.2-21.2-21.2l0,0c-11.7,0-21.2,9.5-21.2,21.2V525c0,11.7,9.5,21.3,21.2,21.3
	c0,0,0,0,0.1,0h131.6c11.7,0,21.2-9.5,21.2-21.2l0,0c0-11.7-9.5-21.2-21.2-21.2h-89.1C202,503.8,192.5,494.3,192.5,482.5
	C192.5,482.5,192.5,482.5,192.5,482.5z"/>
<path class="st3" d="M192.5,482.5V280.3c0-11.7-9.5-21.2-21.2-21.2l0,0c-11.7,0-21.2,9.5-21.2,21.2V525c0,11.7,9.5,21.3,21.2,21.3
	c0,0,0,0,0.1,0h131.6c11.7,0,21.2-9.5,21.2-21.2l0,0c0-11.7-9.5-21.2-21.2-21.2h-89.1C202,503.8,192.5,494.3,192.5,482.5
	C192.5,482.5,192.5,482.5,192.5,482.5z"/>
<path class="st1" d="M324.1,523.8c-0.6-11.3-9.9-20.1-21.2-20.1h-89.1c-11.7,0-21.3-9.5-21.3-21.2c0,0,0,0,0,0V280.3
	c0-11.3-8.9-20.7-20.2-21.2v264.7H324.1z"/>
<rect x="776.4" y="452.6" class="st1" width="19.6" height="224.2"/>
<rect x="388.4" y="452.6" class="st4" width="19.6" height="16.2"/>
<rect x="776.4" y="452.6" class="st4" width="19.6" height="16.2"/>
<path class="st4" d="M458.5,319.2c-0.3,3.5-0.7,7-1.2,10.5h-2.8v-10.5H458.5z"/>
<path class="st3" d="M538.8,428.3c0.1,3.5-2.5,6.5-5.7,6.5h-59.9v-6.2h49.8c2.2,0,3.5-2.6,2.4-4.7L480.3,332c-0.7-1.3-2-2.2-3.5-2.3
	h-22.3v-10.5h28.2c1,0,2,0.6,2.5,1.6l51.8,100C538.1,423.1,538.8,425.7,538.8,428.3z"/>
<path class="st3" d="M428.9,411.6l-0.8,1.4l-7.7-5.1l23.7-182.5h6.1c0,0,0.2,0.8,0.7,2.4C455,243.6,475.1,332.9,428.9,411.6z"/>
<path class="st4" d="M450.9,227.8l-22,183.8l-0.8,1.4l-7.7-5.1l23.7-182.5h6.1C450.2,225.4,450.5,226.3,450.9,227.8z"/>
<rect x="337.3" y="311.1" transform="matrix(0.1189 -0.9929 0.9929 0.1189 64.4797 709.3387)" class="st1" width="189.3" height="14.5"/>
<path class="st5" d="M364.1,428.3c0,0.9-0.8,1.7-1.7,1.7h-2.6c-0.9,0-1.7-0.8-1.7-1.7c0-0.1,0-0.1,0-0.2c0.1-0.9,0.8-1.5,1.7-1.5
	h2.6c0.8,0,1.5,0.5,1.6,1.3C364.1,428.1,364.1,428.2,364.1,428.3z"/>
<path class="st5" d="M371.8,428.3c0,0.9-0.8,1.7-1.7,1.7h-2.6c-0.9,0-1.7-0.8-1.7-1.7c0-0.2,0-0.3,0.1-0.5c0.1-0.3,0.2-0.5,0.4-0.7
	c0.3-0.3,0.7-0.5,1.2-0.5h2.6c0.7,0,1.3,0.4,1.6,1C371.7,427.9,371.8,428.1,371.8,428.3z"/>
<path class="st5" d="M378.6,428.3c0,0.9-0.8,1.7-1.7,1.7h-2.6c-0.9,0-1.7-0.8-1.7-1.7c0-0.2,0-0.5,0.1-0.7c0.3-0.6,0.9-1,1.5-1h2.6
	C377.8,426.6,378.6,427.4,378.6,428.3C378.6,428.3,378.6,428.3,378.6,428.3L378.6,428.3z"/>
<path class="st5" d="M386.3,428.3c0,0.9-0.8,1.7-1.7,1.7H382c-0.9,0-1.7-0.8-1.7-1.7c0-0.4,0.1-0.7,0.3-1l0.2-0.2
	c0.3-0.3,0.7-0.5,1.2-0.5h2.6c0.5,0,0.9,0.2,1.2,0.5C386.1,427.5,386.3,427.9,386.3,428.3z"/>
<path class="st4" d="M364.1,427.9c0,0.1,0.1,0.3,0,0.4c0,0.9-0.8,1.7-1.7,1.7h-2.6c-0.9,0-1.7-0.8-1.7-1.7c0-0.1,0-0.1,0-0.2
	L364.1,427.9z"/>
<path class="st4" d="M371.7,427.7c0.1,0.2,0.1,0.4,0.1,0.7c0,0.9-0.8,1.7-1.7,1.7h-2.6c-0.9,0-1.7-0.8-1.7-1.7c0-0.2,0-0.3,0.1-0.5
	L371.7,427.7z"/>
<path class="st4" d="M378.4,427.4c0.2,0.3,0.3,0.6,0.3,0.9c0,0.9-0.8,1.7-1.7,1.7h-2.6c-0.9,0-1.7-0.8-1.7-1.7c0-0.2,0-0.5,0.1-0.7
	L378.4,427.4z"/>
<path class="st4" d="M386.3,428.3c0,0.9-0.8,1.7-1.7,1.7H382c-0.9,0-1.7-0.8-1.7-1.7c0-0.4,0.1-0.7,0.3-1l5.2-0.2
	C386.1,427.5,386.3,427.9,386.3,428.3z"/>
<path class="st1" d="M401.6,435.2h-49.4v-2.2c0-2.1,1.6-3.8,3.7-3.9l39.7-1.4c3.2-0.1,6,2.4,6.1,5.7c0,0.1,0,0.1,0,0.2L401.6,435.2z
	"/>
<path class="st3" d="M645.6,428.3c-0.1,3.5,2.5,6.5,5.7,6.5h59.9v-6.2h-49.9c-2.2,0-3.5-2.6-2.4-4.7L704,332c0.7-1.3,2-2.2,3.5-2.3
	h22.3v-10.5h-28.2c-1,0-2,0.6-2.4,1.6l-51.8,100C646.3,423.1,645.7,425.6,645.6,428.3z"/>
<path class="st3" d="M755.5,411.6l0.8,1.4l7.7-5.1l-23.7-182.5h-6.1c0,0-0.2,0.8-0.7,2.4C729.4,243.6,709.3,332.9,755.5,411.6z"/>
<path class="st4" d="M733.5,227.8l22,183.8l0.8,1.4l7.7-5.1l-23.7-182.5h-6.1C734.2,225.4,733.9,226.3,733.5,227.8z"/>
<rect x="745.3" y="223.7" transform="matrix(0.9929 -0.1189 0.1189 0.9929 -32.5153 91.7521)" class="st1" width="14.5" height="189.3"/>
<path class="st5" d="M820.3,428.3c0,0.9,0.8,1.7,1.7,1.7h2.6c0.9,0,1.7-0.8,1.7-1.7l0,0c0-0.1,0-0.1,0-0.2c-0.1-0.9-0.8-1.5-1.7-1.5
	H822c-0.8,0-1.5,0.5-1.7,1.3C820.3,428.1,820.3,428.2,820.3,428.3z"/>
<path class="st5" d="M812.6,428.3c0,0.9,0.8,1.7,1.7,1.7h2.6c0.9,0,1.7-0.8,1.7-1.7l0,0c0-0.2,0-0.3-0.1-0.5
	c-0.1-0.3-0.2-0.5-0.4-0.7c-0.3-0.3-0.7-0.5-1.2-0.5h-2.6c-0.7,0-1.3,0.4-1.6,1C812.6,427.9,812.6,428.1,812.6,428.3z"/>
<path class="st5" d="M805.8,428.3c0,0.9,0.8,1.7,1.7,1.7h2.6c0.9,0,1.7-0.8,1.7-1.7l0,0c0-0.2,0-0.5-0.2-0.7c-0.3-0.6-0.9-1-1.5-1
	h-2.6C806.6,426.6,805.8,427.4,805.8,428.3C805.8,428.3,805.8,428.3,805.8,428.3L805.8,428.3z"/>
<path class="st5" d="M798.1,428.3c0,0.9,0.8,1.7,1.7,1.7h2.6c0.9,0,1.7-0.8,1.7-1.7c0-0.4-0.1-0.7-0.3-1l-0.2-0.2
	c-0.3-0.3-0.7-0.5-1.2-0.5h-2.6c-0.5,0-0.9,0.2-1.2,0.5C798.3,427.5,798.1,427.9,798.1,428.3z"/>
<path class="st4" d="M820.3,427.9c0,0.1-0.1,0.3,0,0.4c0,0.9,0.8,1.7,1.7,1.7h2.6c0.9,0,1.7-0.8,1.7-1.7l0,0c0-0.1,0-0.1,0-0.2
	L820.3,427.9z"/>
<path class="st4" d="M812.8,427.7c-0.1,0.2-0.1,0.4-0.1,0.7c0,0.9,0.8,1.7,1.7,1.7h2.6c0.9,0,1.7-0.8,1.7-1.7l0,0
	c0-0.2,0-0.3-0.1-0.5L812.8,427.7z"/>
<path class="st4" d="M806.1,427.4c-0.2,0.3-0.3,0.6-0.3,0.9c0,0.9,0.8,1.7,1.7,1.7h2.6c0.9,0,1.7-0.8,1.7-1.7l0,0
	c0-0.2,0-0.5-0.2-0.7L806.1,427.4z"/>
<path class="st4" d="M798.1,428.3c0,0.9,0.8,1.7,1.7,1.7h2.6c0.9,0,1.7-0.8,1.7-1.7c0-0.4-0.1-0.7-0.3-1l-5.2-0.2
	C798.3,427.5,798.1,427.9,798.1,428.3z"/>
<path class="st1" d="M782.8,435.2h49.5v-2.2c0-2.1-1.6-3.8-3.7-3.9l-39.7-1.4c-3.2-0.1-6,2.4-6.1,5.7c0,0.1,0,0.1,0,0.2L782.8,435.2
	z"/>
<linearGradient id="SVGID_1_" gradientUnits="userSpaceOnUse" x1="900.3436" y1="140.7082" x2="900.3436" y2="655.5182" gradientTransform="matrix(1 9.000000e-02 9.000000e-02 -1 -53.61 753.24)">
	<stop  offset="0" style="stop-color:#808080;stop-opacity:0.25"/>
	<stop  offset="0.54" style="stop-color:#808080;stop-opacity:0.12"/>
	<stop  offset="1" style="stop-color:#808080;stop-opacity:0.1"/>
</linearGradient>
<path class="st6" d="M989.8,462.3c23.1-39.1,14.7-118.1,15.6-119.6c0.8-1.3-2.3-38.5-23.5-47.6c-3.8-7.6-7.6-16.1-7.6-16.1
	c-0.4,0.3-0.8,0.7-1.2,0.9c-0.2-0.5-0.3-0.9-0.5-1.4c-0.3-0.8-0.5-1.6-0.8-2.4c0.6,0.2,1.2,0.3,1.8,0.5c1.6,0.4,3.3,0.2,4.8-0.4
	c0.5-0.3,1-0.6,1.4-1.1c1.7-1.1,2.6-3.1,3.4-5l6.2-14.8c2.8-6.7,5.6-13.4,7.1-20.4c2.2-10.6,1.3-21.7-2.5-31.9
	c-1.5-3.9-3.5-7.8-6.9-10.1c-6.9-4.7-16.4-1.4-24.3-4.2c-2.6-0.9-4.9-2.4-7.5-3.3c-5.6-2-11.9-0.9-17.2,1.6s-9.7,6.4-14.4,10
	c-2.3,1.8-6,3.6-8.7,6c-2.6,2.1-4.7,4.6-4.3,7.8c0.4,3.8,4.4,6,8.1,6.9c0.6,0.1,1.2,0.2,1.9,0.4c-14,14.1-13.8,36.9,0.3,50.9
	c4.2,4.2,9.4,7.2,15,8.9c1.9,3.5,3.5,7.2,4.9,10.9c0.2,0.5,0.4,1,0.5,1.5c-6.1,1.7-10.8,3.1-11.8,3.9c-2.9,2.4,3.1,23.2,3.1,23.2
	c-1.5,1.9-3.1,4.1-4.7,6.5c-12,18.2-19.6,38.9-22.2,60.6c-1,7.9-2.3,16-4,23.7l-71.7-14.4l-0.2,1.8l-1.7-0.4l0,0l-5.4-1.3l-0.2,1.2
	l-0.8-0.4c-13.3-6.2-35.8-14.2-51-6c-16,8.6,18.6,20.1,40.8,26.2c-7.4,0.4-14.4,2.1-20,6.3c-16.1,12.1,29.5,18.4,51,20.6l0.9,0.1
	v0.5l7.5,0.7l1.8,0.2l0.2,2.7c0,0,10.7,1.8,25,3.9c-16.3,4.1-36.4,6.9-50.4,8.5c-14.8,1.7-27.4,12.1-31.4,26.5
	c-1.3,4.1-1.4,8.5-0.4,12.7c4.2,14.5-0.9,121.4-2.1,144.4L767.4,657c0,0-41,5-13.7,14.6c2.5,0.8,5,1.5,7.5,2
	c-3.6,2.3-3.3,5.3,7.3,9.1c27.3,9.6,90.9-0.4,90.9-0.4s-1.4-11.3-3.7-20.6l0.7,0.1c0,0-6.6-24.4,3.4-36.7s-1.7-106-1.7-106
	s17.4-7.2,69.5-7.7c42,10.8,62.5-27.8,62.2-47.8C989.8,463.1,989.8,462.7,989.8,462.3z"/>
<path class="st7" d="M834.5,401.6l-4.5,18c0,0-4-0.9-10-2.4c-20.3-5.3-63.2-17.9-46-27.2c14.8-8,36.6-0.2,49.6,5.9
	c4.7,2.2,8.3,4.2,9.9,5.2C834.2,401.4,834.5,401.6,834.5,401.6z"/>
<path class="st4" d="M833.3,406.7l-3.2,13c0,0-4-0.9-10-2.4l3.6-21.3c4.7,2.2,8.3,4.2,9.9,5.2L833.3,406.7z"/>
<polygon class="st8" points="833.3,420.9 820.9,417.9 824.8,395.1 834.7,397.5 "/>
<polygon class="st4" points="833.3,420.9 828,419.6 830,396.4 834.7,397.5 "/>
<path class="st9" d="M953.1,326.7c0,0-23.8-13.8-34.4,25.8s-11.6,57.7-11.6,57.7l-75.3-15.1l-2.4,27.5c0,0,80.5,26,90.7,24.1
	s43-57,43-57S992.9,347,953.1,326.7z"/>
<g class="st10">
	<path d="M834.5,401.6l-4.5,18c0,0-4-0.9-10-2.4c-20.3-5.3-63.2-17.9-46-27.2c14.8-8,36.6-0.2,49.6,5.9c4.7,2.2,8.3,4.2,9.9,5.2
		C834.2,401.4,834.5,401.6,834.5,401.6z"/>
	<path class="st4" d="M833.3,406.7l-3.2,13c0,0-4-0.9-10-2.4l3.6-21.3c4.7,2.2,8.3,4.2,9.9,5.2L833.3,406.7z"/>
	<polygon points="833.3,420.9 820.9,417.9 824.8,395.1 834.7,397.5 	"/>
	<polygon class="st4" points="833.3,420.9 828,419.6 830,396.4 834.7,397.5 	"/>
	<path d="M953.1,327.7c0,0-23.8-13.8-34.4,25.8s-11.6,57.7-11.6,57.7l-75.3-15.1l-2.4,27.5c0,0,80.5,26,90.7,24.1s43-57,43-57
		S992.9,348,953.1,327.7z"/>
</g>
<path class="st11" d="M801.5,633l-30.8,17.7c0,0-39.8,4.9-13.3,14.2s88.2-0.4,88.2-0.4s-3.4-27.7-8.2-31.6S801.5,633,801.5,633z"/>
<path class="st12" d="M921.3,434.3c0,0-15.3,8-42.5,14.9c-15.9,4-35.9,6.8-49.7,8.5c-14.4,1.6-26.5,11.7-30.5,25.6
	c-1.3,4-1.4,8.3-0.3,12.4c4.5,15.8-2.2,144.5-2.2,144.5l46.7,4.3c0,0-6.4-23.7,3.3-35.7s-1.6-102.9-1.6-102.9s16.9-7,67.5-7.5
	c46.8,12,66.1-39.3,58.9-53.6S921.3,434.3,921.3,434.3z"/>
<g class="st10">
	<path d="M801.5,633l-30.8,17.7c0,0-39.8,4.9-13.3,14.2s88.2-0.4,88.2-0.4s-3.4-27.7-8.2-31.6S801.5,633,801.5,633z"/>
	<path d="M921.3,434.3c0,0-15.3,8-42.5,14.9c-15.9,4-35.9,6.8-49.7,8.5c-14.4,1.6-26.5,11.7-30.5,25.6c-1.3,4-1.4,8.3-0.3,12.4
		c4.5,15.8-2.2,144.5-2.2,144.5l46.7,4.3c0,0-6.4-23.7,3.3-35.7s-1.6-102.9-1.6-102.9s16.9-7,67.5-7.5c46.8,12,66.1-39.3,58.9-53.6
		S921.3,434.3,921.3,434.3z"/>
</g>
<path class="st11" d="M815.9,643.7l-30.8,17.7c0,0-39.8,4.8-13.3,14.2s88.2-0.4,88.2-0.4s-3.4-27.7-8.2-31.6
	S815.9,643.7,815.9,643.7z"/>
<path class="st12" d="M926.3,509.2c-50.6,0.5-67.5,7.5-67.5,7.5s11.3,91,1.6,102.9s-3.3,35.7-3.3,35.7l-46.7-4.3
	c0,0,0.1-1.5,0.2-4.2c1.1-22.4,6-126.2,2-140.3c-1-4.1-0.9-8.4,0.3-12.4c4-14,16.1-24.1,30.5-25.7c13.8-1.6,33.7-4.4,49.6-8.5
	l0.8-0.2c26.7-6.9,41.7-14.7,41.7-14.7s42.3-3.8,49.5,10.6c1,2.3,1.5,4.8,1.5,7.2C987,482.2,967.1,519.7,926.3,509.2z"/>
<path class="st7" d="M855.9,424.1l-1.7,18.5c0,0-4.1-0.3-10.2-0.9c-20.9-2.2-65.1-8.3-49.5-20c13.5-10.1,36.2-5.7,49.9-1.6
	c5,1.5,8.8,3,10.5,3.6C855.5,423.9,855.9,424.1,855.9,424.1z"/>
<path class="st7" d="M980.1,303.1c0,0-6.3,4.9-13.9,10.3c-8.4,1.9-18.1,3.5-25.2,4.5c2.5-8,1-17-1.8-24.9c-3.1-8.2-7.3-16-12.5-23.1
	l42.3-13.2c-3.3,8.4-1.8,18,1,26.3C972.4,290.1,975.9,296.9,980.1,303.1z"/>
<path class="st4" d="M855.4,429.3l-1.2,13.3c0,0-4.1-0.3-10.2-0.9l0.4-21.6c5,1.5,8.8,3,10.5,3.6L855.4,429.3z"/>
<polygon class="st8" points="857.5,443.3 844.8,442.1 845.2,419.1 855.4,420 "/>
<path class="st4" d="M980.1,303.1c0,0-6.3,4.9-13.9,10.3c-8.4,1.9-18.1,3.5-25.2,4.5c2.5-8,1-17-1.8-24.9c10.3-3,25.1-6.9,30.8-10
	C972.5,290.1,975.9,296.9,980.1,303.1z"/>
<path class="st8" d="M971.6,283.5c0,0,7.1,16.1,11.5,23.3s-51.8,14-51.8,14s-5.8-20.2-3-22.5S966.9,288.2,971.6,283.5z"/>
<path class="st4" d="M986.7,462.8c-2.4,4.2-5.3,8-8.8,11.3c-24.9,23.6-65.6-1-84-14.5c26.7-6.9,41.7-14.7,41.7-14.7
	s42.3-3.8,49.5,10.6C986.2,457.8,986.8,460.3,986.7,462.8z"/>
<path class="st9" d="M978.1,472.5c-28.3,26.8-77-8.7-90.1-19.2c-2.1-1.7-3.3-2.8-3.3-2.8c5.2-4.9,9.8-15.2,13.4-27.8
	c3.4-12.1,5.8-24.4,7.3-36.8c2.5-21,9.9-41.2,21.5-58.8c1.5-2.3,3-4.5,4.5-6.3c10.7-13.6,28.6-22.2,28.6-22.2
	c37.8-11.1,42.9,45.1,41.9,46.7S1011,441.3,978.1,472.5z"/>
<path class="st4" d="M981.8,395.7c0,0-24.3,59.4-34.1,62.8c-5.6,1.9-35.3-1.7-59.7-5.2c-2.1-1.7-3.3-2.8-3.3-2.8
	c5.2-4.9,9.8-15.2,13.4-27.8l31.5,1.5c0,0-1.8-18.1,2.9-58.8s30.2-30.6,30.2-30.6C1005,349.1,981.8,395.7,981.8,395.7z"/>
<polygon class="st4" points="857.5,443.3 852,442.8 850.6,419.6 855.4,420 "/>
<path class="st9" d="M962,332.3c0,0-25.6-10.1-30.2,30.6s-2.9,58.8-2.9,58.8l-76.7-3.7l1.7,27.6c0,0,83.5,13.7,93.2,10.3
	s34.1-62.8,34.1-62.8S1004.3,346.4,962,332.3z"/>
<path class="st4" d="M963.7,272c-1.1-6.1,5.2-6,7.5-11.7l-42.3,13.2c2.9,3.9,5.6,8.1,7.8,12.5c2.2,0.7,4.4,1.1,6.7,1.3
	C953.5,288.3,956.7,278.3,963.7,272z"/>
<ellipse transform="matrix(9.202299e-02 -0.9958 0.9958 9.202299e-02 609.7057 1166.3302)" class="st7" cx="944.4" cy="248.8" rx="35" ry="35"/>
<path class="st4" d="M909.9,217.3c0.4,3.6,4.3,5.9,7.8,6.7s7.4,0.9,10.6,2.8c5,3.1,6.3,9.9,5.7,15.8c-0.3,3.3-0.8,7.4,1.9,9.3
	c0.9,0.5,1.8,0.9,2.8,1c2.8,0.6,5.7,0.7,8.6,0.3c1.7-0.2,3.4-0.6,5-0.1c2.6,0.8,4.2,3.5,4.7,6.2s0.2,5.5,0.6,8.1
	c1.2,6.9,6.5,12.4,13.3,13.7c1.6,0.4,3.2,0.2,4.7-0.4c1.9-1,2.9-3.1,3.7-5.1l6-14.4c2.7-6.5,5.4-13,6.9-19.9
	c2.1-10.3,1.3-21.1-2.4-30.9c-1.4-3.8-3.4-7.5-6.7-9.8c-6.7-4.5-16-1.4-23.6-4c-2.5-0.9-4.8-2.4-7.3-3.2c-5.4-1.9-11.5-0.9-16.7,1.5
	s-9.4,6.3-14,9.8C917.6,207.7,909.1,211,909.9,217.3z"/>
<path class="st13" d="M910.8,216.5c0.4,3.6,4.3,5.9,7.8,6.7s7.4,0.9,10.6,2.8c5,3.1,6.3,9.9,5.7,15.8c-0.3,3.3-0.8,7.4,1.9,9.3
	c0.9,0.5,1.8,0.9,2.8,1c2.8,0.6,5.7,0.7,8.6,0.3c1.7-0.2,3.4-0.6,5-0.1c2.6,0.8,4.2,3.5,4.7,6.2c0.5,2.7,0.2,5.5,0.6,8.1
	c1.2,6.9,6.5,12.4,13.3,13.7c1.6,0.4,3.2,0.2,4.7-0.4c1.9-1,2.9-3.1,3.7-5.1l6-14.4c2.7-6.5,5.4-13,6.9-19.9
	c2.1-10.3,1.3-21.1-2.4-30.9c-1.4-3.8-3.4-7.5-6.7-9.8c-6.7-4.5-16-1.4-23.6-4c-2.5-0.9-4.8-2.4-7.3-3.2c-5.4-1.9-11.5-0.9-16.7,1.5
	s-9.4,6.3-14,9.8C918.5,206.9,910.1,210.2,910.8,216.5z"/>
<path class="st4" d="M939.8,354.6c0,0-13.3,51.9-26.6,56.7s-7.4,6.2-7.4,6.2"/>
<rect x="925.9" y="544.6" class="st1" width="14.5" height="95.4"/>
<rect x="925.9" y="544.6" class="st4" width="14.5" height="7.1"/>
<path class="st1" d="M896.9,544.1v2c0,2.6,2.1,4.7,4.7,4.7l0,0h63.2c2.6,0,4.7-2.1,4.7-4.7l0,0v-2c0-2.6-2.1-4.7-4.7-4.7l0,0h-63.2
	C899,539.4,896.9,541.5,896.9,544.1L896.9,544.1z"/>
<path class="st4" d="M898,541.1h70.4c-0.9-1.1-2.2-1.7-3.6-1.7h-63.2C900.2,539.4,898.8,540,898,541.1z"/>
<path class="st1" d="M879.1,634.8h108.2c3,0,5.5,2.5,5.5,5.5v0.4c0,3-2.5,5.5-5.5,5.5H879.1c-3,0-5.5-2.5-5.5-5.5v-0.4
	C873.6,637.2,876,634.8,879.1,634.8z"/>
<circle class="st3" cx="986" cy="653.4" r="7.3"/>
<circle class="st3" cx="880.3" cy="653.4" r="7.3"/>
<circle class="st3" cx="933.2" cy="653.4" r="7.3"/>
<path class="st1" d="M926.2,427.4h97c4.7,0,8.5,3.8,8.5,8.5v0.6c0,4.7-3.8,8.5-8.5,8.5h-97c-4.7,0-8.5-3.8-8.5-8.5v-0.6
	C917.7,431.2,921.5,427.4,926.2,427.4z"/>
<path class="st4" d="M940.4,634.8c0,0-5.7,5.6-14.5,0"/>
<path class="st4" d="M1031.8,436.4v1.4c0,4-3.2,7.2-7.2,7.2H925c-4,0-7.2-3.2-7.2-7.2v-1.4H1031.8z"/>
<rect x="822.4" y="452.6" class="st1" width="19.6" height="249.9"/>
<rect x="822.4" y="452.6" class="st4" width="19.6" height="16.2"/>
<rect x="232.9" y="551.4" class="st1" width="14.5" height="95.4"/>
<rect x="232.9" y="551.4" class="st4" width="14.5" height="7.1"/>
<path class="st1" d="M276.5,550.9v2c0,2.6-2.1,4.7-4.7,4.7l0,0h-63.2c-2.6,0-4.7-2.1-4.7-4.7l0,0v-2c0-2.6,2.1-4.7,4.7-4.7h63.2
	C274.4,546.3,276.5,548.4,276.5,550.9L276.5,550.9L276.5,550.9z"/>
<path class="st4" d="M275.4,547.9H205c0.9-1.1,2.2-1.7,3.6-1.7h63.2C273.2,546.2,274.5,546.9,275.4,547.9z"/>
<path class="st1" d="M186.1,641.6h108.2c3,0,5.5,2.5,5.5,5.5v0.4c0,3-2.5,5.5-5.5,5.5H186.1c-3,0-5.5-2.5-5.5-5.5v-0.4
	C180.6,644,183.1,641.6,186.1,641.6z"/>
<circle class="st3" cx="187.3" cy="660.2" r="7.3"/>
<circle class="st3" cx="293.1" cy="660.2" r="7.3"/>
<circle class="st3" cx="240.2" cy="660.2" r="7.3"/>
<path class="st4" d="M232.9,641.6c0,0,5.7,5.6,14.5,0"/>
<path class="st14" d="M603.1,354.5c0,0-16.3-29.6-10.3-55.3c2.6-10.8,1.6-22.1-2.8-32.2c-2.1-4.8-4.7-9.4-7.6-13.7"/>
<path class="st9" d="M585.9,236.9c0.8,3.9-3.7,16.7-3.7,16.7s-9.5-9.7-10.3-13.6c-1.2-3.8,1-7.8,4.8-9s7.8,1,9,4.8
	C585.7,236.2,585.8,236.6,585.9,236.9L585.9,236.9z"/>
<path class="st9" d="M602.2,255.9c-1.4,3.7-12.2,12-12.2,12s-2.7-13.3-1.3-17c1.2-3.8,5.3-5.8,9.1-4.6c3.8,1.2,5.8,5.3,4.6,9.1
	C602.4,255.5,602.3,255.7,602.2,255.9L602.2,255.9z"/>
<path class="st9" d="M609.8,292.7c-3.1,2.5-16.5,4.2-16.5,4.2s4.4-12.8,7.5-15.4c3.1-2.5,7.6-2.1,10.1,0.9
	C613.4,285.6,613,290.1,609.8,292.7C609.9,292.6,609.8,292.7,609.8,292.7z"/>
<path class="st9" d="M609.2,321.8c-2.6,3-15.6,6.9-15.6,6.9s2.2-13.4,4.8-16.4c2.5-3.1,7-3.5,10.1-1s3.5,7,1,10.1
	C609.4,321.6,609.3,321.7,609.2,321.8L609.2,321.8z"/>
<path class="st9" d="M575.5,271.9c3.4,2.1,17,2,17,2s-6-12.2-9.4-14.3c-3.3-2.2-7.8-1.3-10,2.1c-2.2,3.3-1.3,7.8,2.1,10
	C575.3,271.7,575.4,271.7,575.5,271.9L575.5,271.9z"/>
<path class="st9" d="M575.3,306c3.8,1,16.8-3.1,16.8-3.1s-9.4-9.8-13.2-10.8c-3.9-0.8-7.7,1.7-8.5,5.5
	C569.6,301.2,571.7,304.9,575.3,306z"/>
<path class="st9" d="M579.6,339.1c3.6,1.6,17.1-0.2,17.1-0.2s-7.6-11.3-11.2-12.9c-3.6-1.6-7.9,0-9.5,3.6S576,337.5,579.6,339.1
	L579.6,339.1z"/>
<path class="st9" d="M585.9,236.9c0.8,3.9-3.7,16.7-3.7,16.7s-9.5-9.7-10.3-13.6c-1.2-3.8,1-7.8,4.8-9s7.8,1,9,4.8
	C585.7,236.2,585.8,236.6,585.9,236.9L585.9,236.9z"/>
<path class="st9" d="M602.2,255.9c-1.4,3.7-12.2,12-12.2,12s-2.7-13.3-1.3-17c1.2-3.8,5.3-5.8,9.1-4.6c3.8,1.2,5.8,5.3,4.6,9.1
	C602.4,255.5,602.3,255.7,602.2,255.9L602.2,255.9z"/>
<path class="st9" d="M609.8,292.7c-3.1,2.5-16.5,4.2-16.5,4.2s4.4-12.8,7.5-15.4c3.1-2.5,7.6-2.1,10.1,0.9
	C613.4,285.6,613,290.1,609.8,292.7C609.9,292.6,609.8,292.7,609.8,292.7z"/>
<path class="st9" d="M609.2,321.8c-2.6,3-15.6,6.9-15.6,6.9s2.2-13.4,4.8-16.4c2.5-3.1,7-3.5,10.1-1s3.5,7,1,10.1
	C609.4,321.6,609.3,321.7,609.2,321.8L609.2,321.8z"/>
<path class="st9" d="M575.5,271.9c3.4,2.1,17,2,17,2s-6-12.2-9.4-14.3c-3.3-2.2-7.8-1.3-10,2.1c-2.2,3.3-1.3,7.8,2.1,10
	C575.3,271.7,575.4,271.7,575.5,271.9L575.5,271.9z"/>
<path class="st9" d="M575.3,306c3.8,1,16.8-3.1,16.8-3.1s-9.4-9.8-13.2-10.8c-3.9-0.8-7.7,1.7-8.5,5.5
	C569.6,301.2,571.7,304.9,575.3,306z"/>
<path class="st9" d="M579.6,339.1c3.6,1.6,17.1-0.2,17.1-0.2s-7.6-11.3-11.2-12.9c-3.6-1.6-7.9,0-9.5,3.6S576,337.5,579.6,339.1
	L579.6,339.1z"/>
<path class="st9" d="M596.5,436.6L596.5,436.6c-9.5,0-17.1-7.7-17.1-17.1c0-0.4,0-0.7,0-1.1l4.8-75.9h24.6l4.8,75.9
	c0.6,9.4-6.6,17.6-16,18.2C597.2,436.5,596.9,436.6,596.5,436.6z"/>
<rect x="83.6" y="63.4" class="st0" width="14" height="58"/>
<rect x="101.6" y="63.4" class="st0" width="14" height="58"/>
<rect x="119.6" y="63.4" class="st0" width="14" height="58"/>
<rect x="137.6" y="63.4" class="st0" width="14" height="58"/>
<rect x="173.6" y="63.4" class="st0" width="14" height="58"/>
<rect x="191.6" y="63.4" class="st0" width="14" height="58"/>
<rect x="83.6" y="74.4" class="st0" width="14" height="3"/>
<rect x="83.6" y="110.4" class="st0" width="14" height="3"/>
<rect x="101.6" y="74.4" class="st0" width="14" height="3"/>
<rect x="101.6" y="110.4" class="st0" width="14" height="3"/>
<rect x="119.6" y="74.4" class="st0" width="14" height="3"/>
<rect x="119.6" y="110.4" class="st0" width="14" height="3"/>
<rect x="137.6" y="74.4" class="st0" width="14" height="3"/>
<rect x="137.6" y="110.4" class="st0" width="14" height="3"/>
<rect x="155.6" y="74.4" class="st0" width="14" height="3"/>
<rect x="155.6" y="110.4" class="st0" width="14" height="3"/>
<rect x="173.6" y="74.4" class="st0" width="14" height="3"/>
<rect x="173.6" y="110.4" class="st0" width="14" height="3"/>
<rect x="191.6" y="74.4" class="st0" width="14" height="3"/>
<rect x="191.6" y="110.4" class="st0" width="14" height="3"/>
<rect x="155.6" y="63.4" class="st0" width="14" height="58"/>
<rect x="217.6" y="63.4" transform="matrix(0.9075 -0.4201 0.4201 0.9075 -18.0421 102.899)" class="st0" width="14" height="58"/>
<rect x="210.7" y="75.9" transform="matrix(0.9075 -0.4201 0.4201 0.9075 -12.397 98.6044)" class="st0" width="14" height="3"/>
<rect x="225.8" y="108.6" transform="matrix(0.9075 -0.4201 0.4201 0.9075 -24.721 107.9763)" class="st0" width="14" height="3"/>
<linearGradient id="SVGID_2_" gradientUnits="userSpaceOnUse" x1="329.4847" y1="153.5865" x2="329.4847" y2="665.1151" gradientTransform="matrix(1 0 0 -1 -39.7 843.26)">
	<stop  offset="0" style="stop-color:#808080;stop-opacity:0.25"/>
	<stop  offset="0.54" style="stop-color:#808080;stop-opacity:0.12"/>
	<stop  offset="1" style="stop-color:#808080;stop-opacity:0.1"/>
</linearGradient>
<path class="st15" d="M389.1,661.5l-25.4-16.2c-0.1-22.8-0.5-128.8,4.3-143c1.2-4.1,1.3-8.5,0.2-12.6c-3.3-14.4-15.3-25.2-29.9-27.5
	c-13.8-2.2-33.6-5.9-49.5-10.6c14.2-1.5,24.9-2.7,24.9-2.7l0.3-2.6l9.1-0.4v-0.4l0.9,0c21.4-1.3,66.8-5.5,51.3-18.2
	c-5.3-4.3-12.2-6.4-19.5-7.1c22.3-5.1,57-14.9,41.5-24.2c-14.7-8.8-37.3-1.9-50.8,3.7l-0.8,0.4l-0.1-1.2l-5.4,1.1l0,0l-1.7,0.3
	l-0.1-1.8L262.9,410c-0.6-8.6-1.6-17.3-3.1-25.8c1.7-11.3,9.5-27.7,6.8-36.5c-3.2-10.2-16.4-13.6-22-22.8c-1.5-2.4-2.9-4.7-4.3-6.6
	c-3.1-4.2-6.7-8.1-10.6-11.5c0.2-5.9,1.6-11.8,3.9-17.2c1.5-3.7,3.3-7.2,5.3-10.6c18.3-4.5,29.8-22.5,26.4-41
	c4.8,2,10.6,2.3,13.6-1.7l-1.4-0.6c0.1-0.1,0.3-0.3,0.4-0.5c-2.9-1.1-6-2.4-8.3-4.4c-0.6-0.6-1.1-1.4-1.5-2.1
	c-1.4-2.8-1.2-6.2-2.5-9c-0.6-1.3-1.5-2.4-2.6-3.4c-2.3-2.4-5.2-4-8.5-4.8c-3.6-1.1-7.4-1.6-10.9-3c-9.6-11.2-25-15.5-39.1-11
	l-1.2,0.4c1.8-8.8-3.8-17.5-12.7-19.3c-8.6-1.8-17.1,3.6-19.2,12.1c0.3-3.6,1.9-7.1,4.4-9.7c-0.3,0.2-0.5,0.4-0.8,0.7
	c-6.6,6.2-6.9,16.5-0.7,23.1c0,0,0,0,0,0l0.3,0.3c1.2,1.4,2.5,2.6,4.1,3.6c-5.8-2.1-10-7.2-10.8-13.4c0,0.3,0,0.7,0,1
	c0.5,9,8.2,15.9,17.2,15.3c0,0,0.1,0,0.1,0l0.4-0.1l-0.2,0.3c-9.6,14.1-8.2,32.9,3.3,45.5c0.7,1.5,1.5,2.9,2.6,4.2
	c0.4,0.4,0.8,0.8,1.2,1.2c2.7,2.9,6.5,4.6,10.5,4.8c0.7,0.8,1.4,1.6,2.1,2.3c-0.7,2.8-1.5,5.6-2.6,8.2c-2.1,5.3-4.8,10.5-7.9,15.3
	c-21.6,6.1-23.5,42.8-22.7,44.2c0.9,1.7-3.2,59.3,12.8,128.8c-0.7,19.9,10.9,52.8,52.1,44.1c51.5,2.8,68.4,10.6,68.4,10.6
	s-4.9,89.6,2.1,102.6c4.4,8.2,1.3,20.2-2,28.6c-1.2,2.1-2.2,4.3-2.9,6.6c-1,2.1-1.7,3.4-1.7,3.4h0.7c-2.6,9.2-4.5,20.2-4.5,20.2
	s62.4,12.7,89.9,4.4c10.7-3.2,11.1-6.2,7.6-8.7c2.5-0.4,5.1-0.9,7.5-1.7C429.5,668.3,389.1,661.5,389.1,661.5z"/>
<path class="st16" d="M253.3,236.3c0,19.9-16.1,36-36,36s-36-16.1-36-36c0-19.9,16.1-36,36-36S253.3,216.4,253.3,236.3z"/>
<path class="st7" d="M334.4,405.4l3.6,18.2c0,0,4.1-0.7,10.1-2c20.5-4.4,63.9-15.1,47.1-25.1c-14.5-8.6-36.6-1.8-49.8,3.7
	c-4.8,2-8.5,3.9-10.1,4.7C334.7,405.2,334.4,405.4,334.4,405.4z"/>
<path class="st4" d="M335.4,410.5l2.6,13.1c0,0,4.1-0.7,10.1-2l-2.7-21.5c-4.8,2-8.5,3.9-10.1,4.7L335.4,410.5z"/>
<polygon class="st8" points="334.8,424.7 347.3,422.2 344.5,399.3 334.5,401.3 "/>
<polygon class="st4" points="334.8,424.7 340.2,423.6 339.2,400.4 334.5,401.3 "/>
<path class="st9" d="M219.2,325.3c0,0,24.4-12.7,33.3,27.2c8.9,40,9,58.2,9,58.2l75.9-11.7l1.2,27.6c0,0-81.6,22.4-91.6,20.1
	c-10-2.3-40.5-58.9-40.5-58.9S178.6,343.9,219.2,325.3z"/>
<g class="st10">
	<path d="M334.4,405.4l3.6,18.2c0,0,4.1-0.7,10.1-2c20.5-4.4,63.9-15.1,47.1-25.1c-14.5-8.6-36.6-1.8-49.8,3.7
		c-4.8,2-8.5,3.9-10.1,4.7C334.7,405.2,334.4,405.4,334.4,405.4z"/>
	<path class="st4" d="M335.4,410.5l2.6,13.1c0,0,4.1-0.7,10.1-2l-2.7-21.5c-4.8,2-8.5,3.9-10.1,4.7L335.4,410.5z"/>
	<polygon points="334.8,424.7 347.3,422.2 344.5,399.3 334.5,401.3 	"/>
	<polygon class="st4" points="334.8,424.7 340.2,423.6 339.2,400.4 334.5,401.3 	"/>
	<path d="M221.2,327.3c0,0,24.4-12.7,33.3,27.2c8.9,40,9,58.2,9,58.2l75.9-11.7l1.2,27.6c0,0-81.6,22.4-91.6,20.1
		c-10-2.3-40.5-58.9-40.5-58.9S180.6,345.9,221.2,327.3z"/>
</g>
<path class="st17" d="M357.3,638l29.9,19c0,0,39.6,6.6,12.7,14.8s-88.1-4.3-88.1-4.3s4.6-27.5,9.6-31.2S357.3,638,357.3,638z"/>
<path class="st18" d="M246.3,434.2c0,0,14.9,8.7,41.8,16.8c15.7,4.8,35.5,8.4,49.2,10.6c14.4,2.2,25.9,12.9,29.4,27
	c1.1,4.1,1,8.3-0.2,12.4c-5.2,15.6-4.2,144.5-4.2,144.5l-46.8,2.2c0,0,7.4-23.4-1.7-35.8s6.2-102.7,6.2-102.7s-16.6-7.7-67.1-10.4
	c-47.3,10-64.3-42.1-56.5-56.2S246.3,434.2,246.3,434.2z"/>
<g class="st10">
	<path d="M357.3,638l29.9,19c0,0,39.6,6.6,12.7,14.8s-88.1-4.3-88.1-4.3s4.6-27.5,9.6-31.2S357.3,638,357.3,638z"/>
	<path d="M246.3,434.2c0,0,14.9,8.7,41.8,16.8c15.7,4.8,35.5,8.4,49.2,10.6c14.4,2.2,25.9,12.9,29.4,27c1.1,4.1,1,8.3-0.2,12.4
		c-5.2,15.6-4.2,144.5-4.2,144.5l-46.8,2.2c0,0,7.4-23.4-1.7-35.8s6.2-102.7,6.2-102.7s-16.6-7.7-67.1-10.4
		c-47.3,10-64.3-42.1-56.5-56.2S246.3,434.2,246.3,434.2z"/>
</g>
<path class="st17" d="M342.4,648.1l29.9,19c0,0,39.6,6.6,12.7,14.8s-88.1-4.3-88.1-4.3s4.6-27.5,9.6-31.2S342.4,648.1,342.4,648.1z"
	/>
<path class="st18" d="M237.9,508.8c50.5,2.7,67.1,10.4,67.1,10.4s-4.8,87.8,2,100.6c7.2,13.6-6.5,37.9-6.5,37.9l46.8-2.2
	c0,0,0-1.5,0-4.2c-0.1-22.4-0.5-126.3,4.2-140.2c1.2-4,1.3-8.3,0.2-12.4c-3.4-14.1-15-24.8-29.4-27c-13.7-2.2-33.5-5.9-49.2-10.6
	l-0.8-0.2c-26.4-8-41-16.5-41-16.5s-31.2-2.2-39,11.9c-1,1.8-5.3,5.4-5.5,8.3C185.8,483.8,196.8,517.5,237.9,508.8z"/>
<path class="st7" d="M312.1,426.9l0.9,18.6c0,0,4.1-0.1,10.3-0.5c21-1.2,65.5-5.4,50.3-17.8c-13-10.7-35.9-7.3-49.8-3.8
	c-5.1,1.3-9,2.6-10.7,3.2C312.5,426.7,312.1,426.9,312.1,426.9z"/>
<path class="st7" d="M193.3,300.6c0,0,6,5.2,13.4,10.9c8.3,2.3,18,4.3,24.9,5.6c-2.1-8.1-0.2-17,2.9-24.8c3.4-8.1,8-15.7,13.6-22.5
	l-41.7-15.1c2.9,8.6,1,18.1-2.2,26.3C201.5,287.9,197.8,294.5,193.3,300.6z"/>
<path class="st4" d="M312.4,432.1l0.6,13.3c0,0,4.1-0.1,10.3-0.5l0.6-21.6c-5.1,1.3-9,2.6-10.7,3.2L312.4,432.1z"/>
<polygon class="st8" points="309.6,446 322.4,445.4 323,422.4 312.8,422.9 "/>
<path class="st9" d="M187.8,469.8c27,28.1,77.3-5.3,90.9-15.2c2.2-1.6,3.4-2.6,3.4-2.6c-5-5.1-13-9.8-16.1-22.5
	c-2.9-13-4.9-26.2-5.9-39.5c-0.8-10.5,10.1-30.6,6.9-40.7S250.9,336,245.5,327c-1.4-2.4-2.9-4.6-4.2-6.5
	c-10.1-14-27.6-23.4-27.6-23.4c-37.3-12.8-40.3,40.6-39.3,42.2S171,399.7,187.8,469.8z"/>
<path class="st4" d="M187.6,393c0,0,21.7,60.4,31.3,64.2c5.5,2.2,35.4-0.2,59.9-2.6c2.2-1.6,3.4-2.6,3.4-2.6
	c-5-5.1-9.1-15.6-12.1-28.3l-31.5,0.1c0,0,2.5-18-0.3-58.9s-28.9-31.9-28.9-31.9C166.5,345.4,187.6,393,187.6,393z"/>
<polygon class="st4" points="309.6,446 315.1,445.8 317.6,422.6 312.8,422.9 "/>
<path class="st9" d="M210.2,330.5c0,0,26-8.9,28.9,31.9s0.3,58.9,0.3,58.9l76.8-0.3l-3,27.5c0,0-84,10-93.6,6.2
	s-31.3-64.2-31.3-64.2S167.2,342.8,210.2,330.5z"/>
<path class="st4" d="M211.1,270.3c1.4-6-5-6.2-7-12l41.7,15c-3.1,3.8-5.9,7.9-8.4,12.1c-2.2,0.6-4.5,0.9-6.8,1
	C220.5,286.9,217.8,276.8,211.1,270.3z"/>
<ellipse transform="matrix(0.9988 -4.797813e-02 4.797813e-02 0.9988 -11.6296 11.3859)" class="st7" cx="231.4" cy="247.9" rx="35" ry="35"/>
<path class="st4" d="M213.3,356.4c0,0,11.1,52.4,24.1,57.7s7.1,6.5,7.1,6.5"/>
<path class="st4" d="M258.9,386c0,0-9.2,2.9-20-10.9"/>
<circle class="st16" cx="189.3" cy="199.3" r="16"/>
<path class="st16" d="M178.1,207.7c-5.8-6.2-5.8-15.7,0-21.9c-0.3,0.2-0.5,0.4-0.8,0.6c-6.4,6.1-6.8,16.2-0.7,22.6
	c6.1,6.4,16.2,6.8,22.6,0.7l0,0c0.2-0.2,0.5-0.5,0.7-0.7C193.4,214.5,183.8,213.9,178.1,207.7z"/>
<path class="st16" d="M187.2,213.8c-8.4,0.5-15.8-5.6-16.8-14c0,0.3,0,0.7,0,1c0.6,8.8,8.2,15.5,17,15s15.5-8.2,15-17
	c0-0.3-0.1-0.7-0.1-1C202.2,206.2,195.6,213.2,187.2,213.8z"/>
<path class="st4" d="M244.3,213.2c3.7,1.8,8,2.4,12,3.5c4,1.2,8.1,3.3,9.8,7.1c1.3,2.8,1.1,6.1,2.5,8.8c1.9,4,6.4,5.8,10.5,7.4
	c-3.5,4.8-11.1,3.5-16.1,0.2s-9.2-8-15-9.2c-5.8-1.2-11.8,1.5-14.8,6.6c-1.6,2.8-2.1,6-2.9,9.1c-2,8.1-6,16.2-13,20.8
	s-17.4,4.6-22.9-1.7c-3.2-3.7-4.3-8.7-5.2-13.5c-0.5-2.2-0.8-4.5-0.8-6.8c0.3-5.7,4.1-10.6,8-14.9c4.6-5,9.4-9.8,14.2-14.6
	c4.2-4.1,9-11.1,15.3-11.6C233.2,203.8,238.3,210.3,244.3,213.2z"/>
<path class="st16" d="M243.3,212.2c3.7,1.8,8,2.4,12,3.5c4,1.2,8.1,3.3,9.8,7.1c1.3,2.8,1.1,6.1,2.5,8.8c1.9,4,6.4,5.8,10.5,7.4
	c-3.5,4.8-11.1,3.5-16.1,0.2s-9.2-8-15-9.2c-5.8-1.2-11.8,1.5-14.8,6.6c-1.6,2.8-2.1,6-2.9,9.1c-2,8.1-6,16.2-13,20.8
	s-17.4,4.6-22.9-1.7c-3.2-3.7-4.3-8.7-5.2-13.5c-0.5-2.2-0.8-4.5-0.8-6.8c0.3-5.7,4.1-10.6,8-14.9c4.6-5,9.4-9.8,14.2-14.6
	c4.2-4.1,9-11.1,15.3-11.6C232.2,202.8,237.3,209.3,243.3,212.2z"/>
<path class="st1" d="M150.1,434.3h97c4.7,0,8.5,3.8,8.5,8.5v0.6c0,4.7-3.8,8.5-8.5,8.5h-97c-4.7,0-8.5-3.8-8.5-8.5v-0.6
	C141.6,438.1,145.4,434.3,150.1,434.3z"/>
<path class="st4" d="M141.6,443.3v1.4c0,4,3.2,7.2,7.2,7.2h99.5c4,0,7.2-3.2,7.2-7.2v-1.4H141.6z"/>
<rect x="342.4" y="452.6" class="st1" width="19.6" height="249.8"/>
<rect x="342.4" y="452.6" class="st4" width="19.6" height="16.2"/>
<rect x="333" y="434.7" class="st1" width="518.4" height="32.4"/>
</svg>
