<?xml version="1.0" encoding="iso-8859-1"?>
<!-- Generator: Adobe Illustrator 19.0.0, SVG Export Plug-In . SVG Version: 6.00 Build 0)  -->
<svg version="1.1" id="Layer_1" xmlns="http://www.w3.org/2000/svg" xmlns:xlink="http://www.w3.org/1999/xlink" x="0px" y="0px"
	 viewBox="0 0 512.001 512.001" style="enable-background:new 0 0 512.001 512.001;" xml:space="preserve">
<path style="fill:#FFC61B;" d="M156.747,473.492c-9.848,0-24.225-4.823-56.16-40.565c-16.231-18.165-29.533-36.033-30.091-36.785
	c-0.376-0.507-0.717-1.036-1.023-1.587c-6.073-10.932-9.283-23.321-9.283-35.828v-90.89c0-7.925,6.424-14.35,14.35-14.35h116.075
	c16.624,0,32.305,6.421,44.155,18.081l59.435,58.485c17.218,17.218,17.218,45.102,0.083,62.239
	c-0.026,0.026-0.146,0.145-0.171,0.169c-8.227,8.227-19.264,12.798-31.004,12.798c-11.739,0-22.777-4.572-31.078-12.873
	l-59.37-59.372c-5.889-0.044-15.45-0.089-23.087-0.123l-10.867-0.052c-7.925-0.042-14.317-6.499-14.275-14.424
	c0.042-7.899,6.457-14.275,14.348-14.275c0.026,0,0.05,0,0.076,0l10.85,0.052c6.784,0.03,14.038,0.065,19.604,0.099
	c2.808,0.017,5.19,0.036,6.876,0.056c4.159,0.046,8.461,0.093,12.618,4.223l63.521,63.521c2.88,2.88,6.71,4.467,10.784,4.467
	c4.075,0,7.905-1.586,10.785-4.467c0.026-0.026,0.146-0.145,0.171-0.169c5.873-5.873,5.873-15.549-0.075-21.496l-59.353-58.403
	c-6.447-6.344-14.98-9.838-24.026-9.838H88.889v76.541c0,7.337,1.808,14.609,5.236,21.088c2.615,3.468,13.585,17.86,26.469,32.423
	c25.476,28.797,35.211,32.208,36.505,32.554l155.149-0.03c10.576,0,22.902-5.538,34.621-11.21
	c9.893-4.787,83.334-54.602,127.304-84.877c0.24-0.165,0.485-0.323,0.735-0.474c8.199-4.939,10.853-15.631,5.913-23.835
	c-2.391-3.971-6.189-6.774-10.689-7.892c-4.415-1.096-8.989-0.441-12.91,1.842l-107.186,71.082
	c-6.604,4.38-15.51,2.574-19.889-4.028c-4.381-6.605-2.577-15.51,4.029-19.89l107.483-71.28c0.172-0.115,0.349-0.227,0.527-0.333
	c10.541-6.347,22.922-8.211,34.861-5.246c11.942,2.965,22.014,10.402,28.362,20.94c13.018,21.622,6.146,49.764-15.285,62.975
	c-13.296,9.152-115.77,79.597-130.751,86.847c-14.716,7.122-30.476,14.076-47.12,14.076l-155.498,0.03
	C156.752,473.492,156.749,473.492,156.747,473.492z"/>
<rect x="14.35" y="250.215" style="fill:#FEE187;" width="84.146" height="189.587"/>
<path style="fill:#FFC61B;" d="M98.49,454.142H14.35c-7.925,0-14.35-6.424-14.35-14.35V250.209c0-7.925,6.424-14.35,14.35-14.35
	h84.14c7.925,0,14.35,6.424,14.35,14.35V439.79C112.84,447.716,106.415,454.142,98.49,454.142z M28.699,425.442H84.14V264.559
	H28.699V425.442z"/>
<path style="fill:#FEE187;" d="M352.57,227.758l55.285,29.065c7.478,3.932,16.218-2.418,14.79-10.745l-10.558-61.561l44.726-43.597
	c6.05-5.898,2.712-16.172-5.649-17.386l-61.811-8.981L361.711,58.54c-3.74-7.577-14.542-7.577-18.281,0l-27.643,56.009
	l-61.811,8.981c-8.36,1.215-11.699,11.49-5.649,17.386l44.726,43.597l-10.558,61.561c-1.428,8.327,7.313,14.677,14.79,10.745
	L352.57,227.758z"/>
<path style="fill:#FFC61B;" d="M412.6,272.365c-3.935,0-7.885-0.983-11.422-2.841L352.57,243.97l-48.608,25.555
	c-3.536,1.858-7.486,2.841-11.422,2.841l0,0c-7.244,0-14.096-3.2-18.802-8.781c-4.649-5.516-6.612-12.781-5.387-19.933l9.284-54.127
	l-39.324-38.331c-6.739-6.569-9.118-16.209-6.211-25.159c2.909-8.95,10.5-15.351,19.813-16.704l54.345-7.897l24.304-49.245
	c4.166-8.439,12.599-13.681,22.009-13.681c9.412,0,17.845,5.242,22.009,13.682l24.304,49.244l54.346,7.897
	c9.311,1.353,16.902,7.753,19.811,16.704c2.909,8.95,0.528,18.59-6.209,25.159l-39.324,38.331l9.283,54.125
	c1.227,7.15-0.736,14.416-5.385,19.932C426.699,269.165,419.845,272.365,412.6,272.365z M352.57,213.408
	c2.295,0,4.586,0.55,6.677,1.649l47.832,25.145l-9.135-53.26c-0.798-4.655,0.746-9.405,4.127-12.701l38.697-37.719l-53.478-7.772
	c-4.674-0.679-8.713-3.615-10.804-7.849L352.57,72.442L328.655,120.9c-2.091,4.235-6.13,7.171-10.804,7.849l-53.477,7.772
	l38.697,37.718c3.381,3.298,4.925,8.046,4.127,12.702l-9.135,53.26l47.83-25.145C347.984,213.958,350.277,213.408,352.57,213.408z"
	/>
<g>
</g>
<g>
</g>
<g>
</g>
<g>
</g>
<g>
</g>
<g>
</g>
<g>
</g>
<g>
</g>
<g>
</g>
<g>
</g>
<g>
</g>
<g>
</g>
<g>
</g>
<g>
</g>
<g>
</g>
</svg>
