<?xml version="1.0" encoding="iso-8859-1"?>
<!-- Generator: Adobe Illustrator 19.0.0, SVG Export Plug-In . SVG Version: 6.00 Build 0)  -->
<svg version="1.1" id="Layer_1" xmlns="http://www.w3.org/2000/svg" xmlns:xlink="http://www.w3.org/1999/xlink" x="0px" y="0px"
	 viewBox="0 0 512 512" style="enable-background:new 0 0 512 512;" xml:space="preserve">
<g>
	<path style="fill:#95A5A5;" d="M512,308.471V203.529c0-0.265-0.221-0.494-0.494-0.494h-5.711c-19.88,0-37.8-11.979-45.4-30.349
		l-0.971-2.33c-7.592-18.37-3.381-39.495,10.664-53.539l4.034-4.025c0.194-0.194,0.194-0.512,0-0.706l-74.205-74.205
		c-0.194-0.194-0.503-0.194-0.697,0l-4.034,4.034c-14.045,14.045-35.178,18.255-53.53,10.664l-2.339-0.971
		c-18.37-7.592-30.349-25.521-30.349-45.4V0.494c0-0.265-0.221-0.494-0.494-0.494H203.529c-0.274,0-0.494,0.23-0.494,0.494v5.711
		c0,19.88-11.979,37.809-30.349,45.4l-2.339,0.971c-18.353,7.592-39.486,3.381-53.53-10.664l-4.034-4.034
		c-0.194-0.194-0.503-0.194-0.697,0l-74.205,74.205c-0.194,0.194-0.194,0.512,0,0.706l4.034,4.025
		c14.045,14.045,18.255,35.169,10.664,53.539l-0.971,2.33c-7.601,18.37-25.521,30.349-45.4,30.349H0.494
		c-0.274,0-0.494,0.23-0.494,0.494v104.942c0,0.274,0.221,0.494,0.494,0.494h5.711c19.88,0,37.8,11.988,45.4,30.358l0.468,1.121
		c7.892,19.094,3.522,41.057-11.087,55.667l-3.107,3.107c-0.194,0.194-0.194,0.503,0,0.697l74.205,74.205
		c0.194,0.194,0.503,0.194,0.697,0l3.107-3.099c14.61-14.618,36.573-18.988,55.667-11.096c19.05,7.883,31.479,26.465,31.479,47.086
		v4.493c0,0.274,0.221,0.494,0.494,0.494h104.942c0.274,0,0.494-0.221,0.494-0.494v-4.493c0-20.621,12.429-39.203,31.479-47.086
		c19.094-7.892,41.057-3.522,55.667,11.096l3.107,3.099c0.194,0.194,0.503,0.194,0.697,0l74.205-74.205
		c0.194-0.194,0.194-0.503,0-0.697l-4.034-4.034c-14.045-14.045-18.247-35.169-10.664-53.53l0.971-2.331
		c7.601-18.37,25.521-30.358,45.4-30.358h5.711C511.779,308.966,512,308.745,512,308.471"/>
	<path style="fill:#7F8C8D;" d="M414.897,256.002c0-87.755-71.141-158.897-158.897-158.897S97.103,168.247,97.103,256.002
		S168.245,414.898,256,414.898S414.897,343.757,414.897,256.002"/>
	<path style="fill:#ECF0F1;" d="M361.931,256.002c0,58.5-47.431,105.931-105.931,105.931s-105.931-47.431-105.931-105.931
		S197.5,150.071,256,150.071S361.931,197.501,361.931,256.002"/>
	<path style="fill:#BDC3C7;" d="M281.883,322.804c-3.946-1.977-6.435-6.012-6.435-10.425V300.39
		c0.856-0.971,1.836-2.233,2.887-3.716c4.158-5.879,7.309-12.35,9.49-19.138c3.919-1.209,6.806-4.829,6.806-9.137v-12.791
		c0-2.816-1.245-5.332-3.196-7.089v-18.503c0,0,3.796-28.787-35.187-28.787s-35.187,28.787-35.187,28.787v18.503
		c-1.942,1.757-3.196,4.273-3.196,7.089v12.791c0,3.372,1.774,6.338,4.423,8.06c3.196,13.912,11.573,23.932,11.573,23.932v11.697
		c0,4.264-2.33,8.183-6.073,10.222l-28.54,15.572c-1.951,1.059-3.69,2.392-5.27,3.875c17.452,12.641,38.833,20.18,62.023,20.18
		c23.146,0,44.5-7.512,61.926-20.118c-1.642-1.448-3.469-2.728-5.491-3.743L281.883,322.804z"/>
</g>
<g>
</g>
<g>
</g>
<g>
</g>
<g>
</g>
<g>
</g>
<g>
</g>
<g>
</g>
<g>
</g>
<g>
</g>
<g>
</g>
<g>
</g>
<g>
</g>
<g>
</g>
<g>
</g>
<g>
</g>
</svg>
