<?xml version="1.0" encoding="utf-8"?>
<!-- Generator: Adobe Illustrator 21.0.2, SVG Export Plug-In . SVG Version: 6.00 Build 0)  -->
<svg version="1.1" id="Layer_1" xmlns="http://www.w3.org/2000/svg" xmlns:xlink="http://www.w3.org/1999/xlink" x="0px" y="0px"
	 viewBox="0 0 512 512" style="enable-background:new 0 0 512 512;" xml:space="preserve">
<style type="text/css">
	.st0{fill:#EE6666;}
</style>
<g>
	<g>
		<path class="st0" d="M256,0C114.5,0,0,114.5,0,256c0,141.5,114.5,256,256,256c141.5,0,256-114.5,256-256C512,114.5,397.5,0,256,0z
			 M256,477.9c-122.3,0-221.9-99.5-221.9-221.9S133.7,34.1,256,34.1S477.9,133.7,477.9,256S378.3,477.9,256,477.9z"/>
	</g>
</g>
<g>
	<g>
		<g>
			<g>
				<path class="st0" d="M271.7,256l122.8-122.8c4.3-4.3,4.3-11.3,0-15.7c-4.3-4.3-11.3-4.3-15.7,0L256,240.3L133.2,117.6
					c-4.3-4.3-11.3-4.3-15.7,0c-4.3,4.3-4.3,11.3,0,15.7L240.3,256L117.6,378.8c-4.3,4.3-4.3,11.3,0,15.7c2.2,2.2,5,3.2,7.8,3.2
					c2.8,0,5.7-1.1,7.8-3.2L256,271.7l122.8,122.8c2.2,2.2,5,3.2,7.8,3.2c2.8,0,5.7-1.1,7.8-3.2c4.3-4.3,4.3-11.3,0-15.7L271.7,256z
					"/>
				<path class="st0" d="M386.6,403.2c-4.4,0-8.6-1.7-11.7-4.9L256,279.4L137.1,398.3c-3.1,3.1-7.3,4.9-11.7,4.9
					c-4.4,0-8.6-1.7-11.7-4.9c-6.5-6.5-6.5-17,0-23.4L232.6,256L113.7,137.1c-6.5-6.5-6.5-17,0-23.4c3.1-3.1,7.3-4.9,11.7-4.9
					c4.4,0,8.6,1.7,11.7,4.9L256,232.6l118.9-118.9c6.5-6.5,17-6.5,23.4,0c6.5,6.5,6.5,17,0,23.4L279.4,256l118.9,118.9
					c6.5,6.5,6.5,17,0,23.4C395.2,401.4,391,403.2,386.6,403.2z M256,263.9l126.7,126.7c1.1,1.1,2.4,1.6,3.9,1.6
					c1.5,0,2.9-0.6,3.9-1.6c2.2-2.2,2.2-5.7,0-7.9L263.9,256l126.7-126.7c2.2-2.2,2.2-5.7,0-7.9c-2.2-2.2-5.7-2.2-7.9,0L256,248.1
					L129.3,121.5c-1.1-1.1-2.5-1.6-3.9-1.6s-2.9,0.6-3.9,1.6c-2.2,2.2-2.2,5.7,0,7.9L248.1,256L121.5,382.7c-2.2,2.2-2.2,5.7,0,7.9
					c1.1,1.1,2.4,1.6,3.9,1.6c1.5,0,2.9-0.6,3.9-1.6L256,263.9z"/>
			</g>
		</g>
	</g>
</g>
</svg>
