<?xml version="1.0" encoding="utf-8"?>
<!-- Generator: Adobe Illustrator 21.0.2, SVG Export Plug-In . SVG Version: 6.00 Build 0)  -->
<svg version="1.1" id="Camada_1" xmlns="http://www.w3.org/2000/svg" xmlns:xlink="http://www.w3.org/1999/xlink" x="0px" y="0px"
	 viewBox="0 0 512 512" style="enable-background:new 0 0 512 512;" xml:space="preserve">
<style type="text/css">
	.st0{fill:#6C63FF;}
</style>
<g>
	<path class="st0" d="M326.6,185.5c-6.6,0-12,5.4-12,12v226.6c0,6.6,5.4,12,12,12s12-5.4,12-12V197.5
		C338.6,190.9,333.2,185.5,326.6,185.5z"/>
	<path class="st0" d="M185.1,185.5c-6.6,0-12,5.4-12,12v226.6c0,6.6,5.4,12,12,12c6.6,0,12-5.4,12-12V197.5
		C197.1,190.9,191.8,185.5,185.1,185.5z"/>
	<path class="st0" d="M82,152.4v295.4c0,17.5,6.4,33.9,17.6,45.6c11.1,11.8,26.6,18.5,42.8,18.5h226.9c16.2,0,31.7-6.7,42.8-18.5
		c11.2-11.8,17.6-28.2,17.6-45.6V152.4c22.2-5.9,36.6-27.4,33.7-50.2c-3-22.8-22.4-39.9-45.4-39.9h-61.4v-15
		c0.1-12.6-4.9-24.7-13.8-33.6c-8.9-8.9-21-13.9-33.6-13.8H202.6C190-0.1,177.9,4.9,169,13.8c-8.9,8.9-13.9,21-13.8,33.6v15H93.8
		c-23,0-42.4,17.1-45.4,39.9C45.4,125,59.8,146.5,82,152.4z M369.3,488H142.4c-20.5,0-36.4-17.6-36.4-40.2V153.5h299.8v294.4
		C405.8,470.4,389.8,488,369.3,488z M179.1,47.4c-0.1-6.2,2.4-12.3,6.8-16.7c4.4-4.4,10.4-6.8,16.7-6.7h106.5
		c6.2-0.1,12.3,2.3,16.7,6.7c4.4,4.4,6.9,10.4,6.8,16.7v15H179.1V47.4z M93.8,86.3H418c11.9,0,21.6,9.7,21.6,21.6
		s-9.7,21.6-21.6,21.6H93.8c-11.9,0-21.6-9.7-21.6-21.6S81.8,86.3,93.8,86.3z"/>
	<path class="st0" d="M255.9,185.5c-6.6,0-12,5.4-12,12v226.6c0,6.6,5.4,12,12,12c6.6,0,12-5.4,12-12V197.5
		C267.9,190.9,262.5,185.5,255.9,185.5z"/>
</g>
</svg>
