<?xml version="1.0" encoding="utf-8"?>
<!-- Generator: Adobe Illustrator 21.0.2, SVG Export Plug-In . SVG Version: 6.00 Build 0)  -->
<svg version="1.1" id="Capa_1" xmlns="http://www.w3.org/2000/svg" xmlns:xlink="http://www.w3.org/1999/xlink" x="0px" y="0px"
	 viewBox="0 0 956.6 956.6" style="enable-background:new 0 0 956.6 956.6;" xml:space="preserve">
<style type="text/css">
	.st0{fill:#FFFFFF;}
	.st1{fill:#FFF422;}
</style>
<g>
	<g>
		<g>
			<path class="st0" d="M874.9,525.1c-0.2,0-0.4,0-0.5,0c-17.7,0-34.9,6.6-47.9,18.7l-169.2,156c-8.6,8-19.9,12.4-31.8,12.4h-237
				c-17.2,0-31.3-13.9-31.3-31.3s13.9-31.3,31.3-31.3h164c34.6,0,62.4-28,62.4-62.4c0-34.6-28-62.4-62.4-62.4H297.9
				c-38,0-75.3,10.6-107.5,30.9L135,590.6V572H10v374.6H135v-31.3h329c10.2,0,20.7-0.7,30.9-2.4l128.2-19.8
				c42.6-6.4,82.1-26.5,112.7-57.1l190.2-190.2c13.4-13.2,20.8-31.3,20.7-50.1C946.2,556.6,914.2,525,874.9,525.1z M103.7,915.2
				H41.3v-312h62.4C103.7,603.2,103.7,915.2,103.7,915.2z M903.6,623.9L903.6,623.9L713.4,814.1c-25.8,25.8-59.3,42.8-95.3,48.3
				l-128.2,19.8c-8.6,1.3-17.4,2-26.2,2H135V627.4l72.1-45c27.3-17,58.9-26.2,90.9-26.2h254.6c17.2,0,31.3,13.9,31.3,31.3
				c0,17.2-13.9,31.3-31.3,31.3h-164c-34.6,0-62.4,28-62.4,62.4s28,62.4,62.4,62.4h237c19.6,0,38.6-7.3,52.9-20.7l169.2-156
				c7.7-6.9,17.7-10.8,28.2-10.4c21.8,0,39.5,17.7,39.5,39.5C915.2,606.3,910.9,616.6,903.6,623.9z"/>
		</g>
	</g>
	<g>
		<g>
			<path class="st1" d="M709.2,172.3c-2.9-3.8-7.5-6.2-12.4-6.2H551.2L492.7,19.8c-3.3-8-12.3-11.9-20.3-8.8c-4,1.6-7.1,4.8-8.8,8.8
				l-58.5,146.3H259.5c-8.6,0-15.5,6.9-15.5,15.5c0,4.9,2.4,9.5,6.2,12.4l115.6,86.7l-58.5,160.8c-2.9,8,1.3,17,9.3,19.9
				c5.1,1.8,10.8,0.9,15-2.6l145.8-116.7l130.6,116.1c6.4,5.7,16.3,5.1,21.9-1.3c3.5-4,4.8-9.3,3.5-14.4l-43.5-161.1l116.3-87.2
				C713.1,189.2,714.3,179.3,709.2,172.3z M562.5,262.9c-5.1,3.8-7.3,10.4-5.7,16.6l32.9,121.1l-101.1-90
				c-5.7-5.1-14.3-5.3-20.1-0.5l-112.7,90.2l43.3-119.4c2.4-6.4,0.2-13.7-5.3-17.7l-87.4-65.5h109.2c6.4,0,12.1-3.8,14.4-9.9
				l48.1-120l47.9,119.8c2.4,5.9,8,9.9,14.4,9.9h109.2L562.5,262.9z"/>
		</g>
	</g>
	<g>
		<g>
			
				<rect x="322.2" y="43.9" transform="matrix(0.7071 -0.7071 0.7071 0.7071 36.6622 264.6684)" class="st1" width="31.3" height="88.3"/>
		</g>
	</g>
	<g>
		<g>
			
				<rect x="574.6" y="72.4" transform="matrix(0.7071 -0.7071 0.7071 0.7071 118.9491 463.3085)" class="st1" width="88.3" height="31.3"/>
		</g>
	</g>
	<g>
		<g>
			<rect x="212.9" y="291" class="st1" width="93.6" height="31.3"/>
		</g>
	</g>
	<g>
		<g>
			<rect x="650" y="291" class="st1" width="93.6" height="31.3"/>
		</g>
	</g>
	<g>
		<g>
			<rect x="462.7" y="384.7" class="st1" width="31.3" height="93.6"/>
		</g>
	</g>
</g>
</svg>
