<?xml version="1.0"?>
<svg xmlns="http://www.w3.org/2000/svg" height="512px" viewBox="0 0 512.00028 512" width="512px"><g><path d="m496.984375 0h-144.992187c-5.191407 0-10.015626 2.6875-12.75 7.105469l-83.242188 134.523437-83.238281-134.523437c-2.734375-4.417969-7.5625-7.105469-12.753907-7.105469h-144.992187c-11.746094 0-18.949219 12.953125-12.730469 22.941406l118.097656 189.628906c-27.882812 31.785157-44.8125 73.410157-44.8125 118.921876 0 99.53125 80.941407 180.507812 180.429688 180.507812 99.492188 0 180.433594-80.976562 180.433594-180.507812 0-45.511719-16.933594-87.136719-44.8125-118.921876l118.09375-189.628906c6.210937-9.976562-.96875-22.941406-12.730469-22.941406zm-345.332031 30.011719 76.214844 123.167969c-32.023438 5.039062-61.269532 18.535156-85.390626 38.117187l-100.441406-161.285156zm104.347656 451.976562c-82.949219 0-150.433594-67.511719-150.433594-150.496093 0-82.984376 67.484375-150.5 150.433594-150.5s150.433594 67.511718 150.433594 150.5c0 82.984374-67.484375 150.496093-150.433594 150.496093zm113.523438-290.6875c-24.121094-19.585937-53.367188-33.082031-85.390626-38.121093l76.214844-123.167969h109.617188zm0 0" data-original="#000000" class="active-path" data-old_color="#000000" fill="#FFFFFF"/><path d="m349.765625 296.695312-52.382813-13.132812-28.671874-45.78125c-5.867188-9.371094-19.550782-9.375-25.421876 0l-28.671874 45.78125-52.378907 13.132812c-10.726562 2.6875-14.953125 15.703126-7.855469 24.1875l34.660157 41.425782-3.699219 53.898437c-.757812 11.035157 10.308594 19.078125 20.5625 14.945313l50.09375-20.175782 50.09375 20.175782c10.253906 4.128906 21.324219-3.914063 20.566406-14.945313l-3.703125-53.898437 34.660157-41.425782c7.101562-8.484374 2.871093-21.5-7.851563-24.1875zm-53.6875 50.984376c-2.484375 2.972656-3.726563 6.792968-3.460937 10.660156l2.472656 36.03125-33.488282-13.488282c-3.59375-1.449218-7.609374-1.449218-11.203124 0l-33.488282 13.488282 2.476563-36.03125c.265625-3.871094-.976563-7.6875-3.464844-10.660156l-23.171875-27.695313 35.019531-8.78125c3.757813-.941406 7.003907-3.304687 9.0625-6.589844l19.167969-30.601562 19.167969 30.601562c2.058593 3.285157 5.304687 5.648438 9.066406 6.589844l35.015625 8.78125zm0 0" data-original="#000000" class="active-path" data-old_color="#000000" fill="#FFFFFF"/></g> </svg>
