<?xml version="1.0"?>
<svg xmlns="http://www.w3.org/2000/svg" xmlns:xlink="http://www.w3.org/1999/xlink" version="1.1" id="Layer_1" x="0px" y="0px" viewBox="0 0 512 512" style="enable-background:new 0 0 512 512;" xml:space="preserve" width="512px" height="512px" class=""><g><g>
	<g>
		<path d="M401,322c-30.271,0-57.28,14.232-74.689,36.355l-126.018-69.916C203.984,278.313,206,267.387,206,256    c0-11.387-2.016-22.313-5.707-32.439l126.018-69.916C343.72,175.768,370.729,190,401,190c52.383,0,95-42.617,95-95    S453.383,0,401,0s-95,42.617-95,95c0,11.387,2.016,22.313,5.707,32.439l-126.018,69.916C168.28,175.232,141.271,161,111,161    c-52.383,0-95,42.617-95,95s42.617,95,95,95c30.271,0,57.28-14.232,74.689-36.355l126.018,69.916    C308.016,394.688,306,405.613,306,417c0,52.383,42.617,95,95,95s95-42.617,95-95S453.383,322,401,322z M401,30    c35.841,0,65,29.159,65,65s-29.159,65-65,65s-65-29.159-65-65S365.159,30,401,30z M111,321c-35.841,0-65-29.159-65-65    s29.159-65,65-65s65,29.159,65,65S146.841,321,111,321z M401,482c-35.841,0-65-29.159-65-65s29.159-65,65-65s65,29.159,65,65    S436.841,482,401,482z" data-original="#000000" class="active-path" data-old_color="#000000" fill="#FFFFFF"/>
	</g>
</g></g> </svg>
