<?xml version="1.0" encoding="iso-8859-1"?>
<!-- Generator: Adobe Illustrator 17.1.0, SVG Export Plug-In . SVG Version: 6.00 Build 0)  -->
<!DOCTYPE svg PUBLIC "-//W3C//DTD SVG 1.1//EN" "http://www.w3.org/Graphics/SVG/1.1/DTD/svg11.dtd">
<svg version="1.1" id="Capa_1" xmlns="http://www.w3.org/2000/svg" xmlns:xlink="http://www.w3.org/1999/xlink" x="0px" y="0px"
	 viewBox="0 0 362.621 362.621" style="enable-background:new 0 0 362.621 362.621;" xml:space="preserve">
<path style="fill:#000001;" d="M288.753,121.491c33.495,0,60.746-27.251,60.746-60.746S322.248,0,288.753,0
	s-60.745,27.25-60.745,60.746c0,6.307,0.968,12.393,2.76,18.117l-126.099,76.937c-9.707-8.322-22.301-13.366-36.059-13.366
	c-30.596,0-55.487,24.891-55.487,55.487s24.892,55.487,55.487,55.487c10.889,0,21.047-3.165,29.626-8.606l101.722,58.194
	c-0.584,3.058-0.902,6.209-0.902,9.435c0,27.676,22.516,50.192,50.191,50.192s50.191-22.516,50.191-50.192
	s-22.516-50.191-50.191-50.191c-13.637,0-26.014,5.474-35.069,14.331l-95.542-54.658c3.498-7.265,5.46-15.403,5.46-23.991
	c0-5.99-0.966-11.757-2.73-17.166l125.184-76.379C257.488,114.959,272.368,121.491,288.753,121.491z"/>
<g>
</g>
<g>
</g>
<g>
</g>
<g>
</g>
<g>
</g>
<g>
</g>
<g>
</g>
<g>
</g>
<g>
</g>
<g>
</g>
<g>
</g>
<g>
</g>
<g>
</g>
<g>
</g>
<g>
</g>
</svg>
