<?xml version="1.0" encoding="utf-8"?>
<!-- Generator: Adobe Illustrator 21.0.2, SVG Export Plug-In . SVG Version: 6.00 Build 0)  -->
<svg version="1.1" id="dcc22515-6e5c-427c-a472-433a07234f27"
	 xmlns="http://www.w3.org/2000/svg" xmlns:xlink="http://www.w3.org/1999/xlink" x="0px" y="0px" viewBox="0 0 1009.5 766.6"
	 style="enable-background:new 0 0 1009.5 766.6;" xml:space="preserve">
<style type="text/css">
	.st0{opacity:0.1;fill:#6C63FF;enable-background:new    ;}
	.st1{fill:url(#SVGID_1_);}
	.st2{fill:#6C63FF;}
	.st3{fill:#8E5362;}
	.st4{opacity:0.1;enable-background:new    ;}
	.st5{fill:#BDD2E8;}
	.st6{fill:#494457;}
	.st7{fill:#362133;}
	.st8{fill:#FFC1C7;}
	.st9{fill:#FF5374;}
	.st10{fill:#5555C9;}
	.st11{fill:#575988;}
	.st12{fill:#C4747B;}
	.st13{fill:#BB7684;}
	.st14{opacity:0.1;}
	.st15{fill:none;stroke:#535461;stroke-width:2;stroke-miterlimit:10;}
	.st16{fill:#A8A8A8;}
	.st17{opacity:0.2;enable-background:new    ;}
	.st18{fill:#FFD037;}
</style>
<title>High five</title>
<path class="st0" d="M239.8,639.8c-8.5-0.9-17.4-1.8-25.4,0.5s-14.7,8.8-12.3,15.1c5.3,14,36.7,4.2,51.1,13.8
	c5.2,3.4,7.2,8.8,11.2,13c6.5,6.8,17.7,10,28.5,11.8c65,10.5,139.1-16.5,196.1,9.5c18.5,8.4,33,21.9,53.2,27.5
	c26.8,7.5,56.2-0.5,83.9-5.6c34.6-6.3,69.8-8.2,104.9-5.5c25.9,2,60.4,2.7,68.7-16.2c5.3-12.1-6-25.6-21-31.3s-32.6-5.5-49.3-5
	c-32.3,1.2-64.7,3.5-97,2.4c-62.5-2.2-121.6-27-182.5-27.8C379.1,641,311,646.9,239.8,639.8z"/>
<path class="st0" d="M174.1,326.3c-10,10.1-10.6,25.6-10.6,25.6s15.5-0.9,25.5-11s10.6-25.6,10.6-25.6S184,316.2,174.1,326.3z"/>
<path class="st0" d="M214.3,76.6c3.5,13.8,16.5,22.3,16.5,22.3s7.2-13.7,3.7-27.5S218,49.1,218,49.1S210.8,62.8,214.3,76.6z"/>
<path class="st0" d="M799.2,114.4c-10,10.1-10.6,25.6-10.6,25.6s15.5-0.9,25.5-11s10.6-25.6,10.6-25.6S809.1,104.3,799.2,114.4z"/>
<path class="st0" d="M494.4,256c-1.2,14.1,8.3,26.5,8.3,26.5s11.3-10.6,12.5-24.8s-8.3-26.4-8.3-26.4S495.6,241.9,494.4,256z"/>
<path class="st0" d="M822.5,454.4c-1.2,14.1,8.3,26.5,8.3,26.5s11.3-10.6,12.5-24.8s-8.3-26.5-8.3-26.5S823.6,440.2,822.5,454.4z"/>
<path class="st0" d="M586.6,96.4c-64.7-1.9-126.4-20-185.2-39.8S284.2,14.9,221,4.4c-40.6-6.7-87.1-7.7-119.8,11.2
	C69.7,33.7,59.5,65,54,94.1c-4.1,21.9-6.5,44.9,4.7,65.3c7.8,14.2,21.7,26.1,31.4,39.8c33.5,47.4,9.8,105.7-26.4,152
	c-17,21.7-36.8,42.4-49.9,65.5s-19.2,49.5-7.7,73.1C17.5,513,44.6,530.5,74,542.8c59.7,25,130,32.2,198.6,36.3
	c151.8,9,304.5,5.1,456.7,1.2c56.3-1.4,112.9-2.9,168.3-10.4c30.8-4.2,62.6-10.8,84.9-26.9c28.4-20.4,35.4-54.8,16.4-80.4
	c-31.9-42.8-120-53.5-142.3-99.4c-12.3-25.3,0.3-53.5,18.2-76.9c38.2-50.3,102.3-94.5,105.7-152c2.3-39.5-28.5-79.1-76.1-97.8
	c-49.9-19.6-119.2-17.1-156,15.3C710.4,85.2,643.7,98.1,586.6,96.4z"/>
<linearGradient id="SVGID_1_" gradientUnits="userSpaceOnUse" x1="625.7714" y1="-1.4678" x2="625.7714" y2="679.4127" gradientTransform="matrix(1 0 0 -1 -95.23 701.31)">
	<stop  offset="0" style="stop-color:#808080;stop-opacity:0.25"/>
	<stop  offset="0.54" style="stop-color:#808080;stop-opacity:0.12"/>
	<stop  offset="1" style="stop-color:#808080;stop-opacity:0.1"/>
</linearGradient>
<path class="st1" d="M801.1,284.6c-2.8,0.7-5.1,2.7-6.1,5.4l-1-0.2l-3.7-0.6c0,0-19.8-1.6-23.5-1.4s-6-3.4-6-3.4l-14.7-12.4l-1.1-1
	c1.6-0.6,2.6-0.9,2.6-0.9s-39.4-49-47.9-50s-22.5-12.4-22.7-12.5l-0.2-0.8c-0.3-1.6-0.5-3.3-0.7-5l2.1,1.3l0,0c0-0.6,0-1.2,0.1-1.7
	l0,0c0.3-6,2.4-11.9,5.9-16.8c4.1-5.7,10.2-10.2,12.6-16.8c1-2.8,1.4-5.8,1.3-8.8c0.1-5.4-1.4-10.7-4.1-15.3
	c-2.8-4.7-7.5-7.9-12.9-8.9c-1.4-0.2-2.8-0.2-4.2-0.6c-8.2-1.9-11.2-12.9-19.2-15.6c-3.7-1.3-7.9-0.4-11.5,1.1s-6.8,3.8-10.3,5.5
	s-7.5,3-10.7,5.4c-0.3,0.2-0.7,0.6-1,0.9l0,0l-0.6,0.6l0,0c-1.3,1.3-2.5,2.8-3.4,4.4l-0.2,0.2c-0.1,0.2-0.2,0.4-0.3,0.5
	s-0.2,0.3-0.2,0.4s-0.2,0.3-0.2,0.5l-0.2,0.5l-0.2,0.5c-0.1,0.2-0.1,0.3-0.2,0.5s-0.1,0.3-0.1,0.4l-0.2,0.5l-0.1,0.4
	c0,0.2-0.1,0.4-0.1,0.6s0,0.3,0,0.4s0,0.4,0,0.6s0,0.2,0,0.4s0,0.4,0,0.6s0,0.2,0,0.3c0,0.3,0.1,0.6,0.2,0.9l0,0
	c0.5,1.8,2.4,3.7,3.8,5.4c-0.2,0.1-0.3,0.3-0.5,0.4c-6.8,6.6-10.7,15.6-10.7,25.1c0,2.1,0.2,4.2,0.6,6.2c-1.8-1.4-3.8-2.6-5.8-3.5
	c-6.8-3.2-14.2-5-21.7-5c-12.2-0.1-29.5-4.7-29.5-4.7c0.4,0.8,0.8,1.7,1,2.6c-0.8-0.4-1.6-0.9-2.5-1.4c-7.2-3.9-15-6.5-23-7.7
	c0,0-5.1,0.7-5.8-10c-0.2-3.3-0.8-6.7-1.8-9.9c-2.9-9.8-5-19.8-6.1-30l-1.7-15.7c0,0,7.7-41,3.1-58.5c1.5-5.5,0.7-10.5-4.3-14.1
	c-19.4-14.3-38.9,41.2-38.9,41.2l-7.3,7.1c-1.9-1.2-4-2-6.2-2.4c0,0-3.9,4-6.6,14.9c-1.4,5.8-11.3,15.5-20.2,23.2
	c-6.3,5.5-12.4,11.3-18.5,17.1c-4.5,4.3-14.5,10.4-36.4,13.9c-3.4,0.5-6.5,1.1-9.4,1.5c0.7-2.6,1.1-5.3,1.1-7.9
	c-0.1-13.9-9.8-25.9-23.4-28.9c0.1-0.7,0.1-1.4,0-2.1c-0.4-1.5-1.1-2.9-2.2-4c-4.6-5.7-9.6-11.6-16.5-14.3c-2.8-1.1-5.9-1.6-8.9-1.4
	h-1.5c-0.3,0-0.6,0-0.9,0l0,0c-6.5,0.4-12.6,3.5-16.7,8.7c-2.5,3.3-3.9,7.2-6.1,10.7c-3.9,6.5-10,11.5-16.6,15.5
	c-4,2.4-8.1,4.4-11.8,7.2c-13.5,9.8-19.8,28-16.4,44.2c1.5,7.1,4.7,14.1,3.8,21.4c-0.7,5.6-3.7,10.6-6.8,15.4s-6.3,9.6-7.6,15.1
	s0.1,12,4.7,15.3c1.7,1.2,3.8,2,5.2,3.5c1,1.1,1.8,2.4,2.4,3.8c5,9,13.4,15.5,23.3,18.1c1.6,0.4,3.2,0.6,4.8,0.5h0.2h0.3
	c3.7,0.2,7.4-0.8,8.7-4c0.2-0.7,0.5-1.5,0.8-2.1c0.3-0.5,0.9-0.9,1.5-1c1.2,0.3,2.3,0.7,3.4,1.3c5.1,2.7,10.7,4.3,16.5,4.7
	c1,0.1,1.9,0.1,2.9,0c2,0.2,4-0.1,5.9-0.8c1.8-0.9,3.4-2.2,4.5-3.9c0.3-0.3,0.5-0.7,0.8-1c-1.3,8-3.8,15.7-7.4,23c0,0-6,10-5.6,20.1
	c-0.2,3.7,0.5,7.3,2.2,10.6c0,0,0.2-0.4,0.5-1.1c1.7,2.9,7.4,12.1,11.1,15.3c0.2,9.5,0.1,21.4-1,23.9c-2,4.2-8.3,34,18.9,54.3
	l6.3,13.7l-25.8,1.8c-2.6-0.4-36.4-4.9-36.5,1.7c-0.2,6.9,5.1,73.8,22.6,69.2c16.3-4.2,10.9-23.7,10.1-26.3l0.6-0.2l-0.6-0.2
	l13-12.4c0.2-1.5-0.1-3-1-4.3l0.1-0.1l31.5,1.4l7.4,16.1c0,0,12.6,19.1,2.4,35.2s-20.7,41.2-22.4,56.5
	c-1.4,12.5-10.6,24.7-13.9,28.8c-5.9,2-28.6,10.9-19.5,24.4c10.4,15.4,44,44.8,57.6,43.8s8.1-10.9,8.1-10.9l-11.4-11
	c0,0-2-23.5-1.2-30.3c0.4-3.6-2.2-6.1-5-7.2c1.1-7.7,3.8-22.2,9.6-30.2c8.1-11.2,34.3-60.7,34.3-60.7s8.3-7.4,6.4-29.3
	c-0.8-8.9-1.2-16.6-1.4-22.8l29.6,1.3c0,0,31.8-3.2,10.2-37.2s-67.5-67.4-67.5-67.4l-0.4-21.1c2.1,0.5,3.3,0.8,3.3,0.8
	s-0.2-0.8-0.5-2.1l0.5,0.1c0,0-6.6-28.7-8.7-51.5l1.9,0.9c19.7,22.8,33,3.5,33,3.5s41.6-58.5,37.5-55.8c-0.9,0.4-1.8,0.5-2.7,0.2
	l3-9.6c0,0,12.3-18.8-5.5-29.3c-14.6-8.6-14.2,18.4-13.5,28.6l-0.7-0.6c0,0-13.9,21-21.4,32.7s-13.8,4-13.8,4l-9.5-10.6
	c1.6-4.3,2.3-8.8,2.2-13.3c0.4-6.4-1.9-12.7-6.4-17.3c-7.2-7.4-9.3-14.5-9.5-19.9c0.1-2.8,0.7-5.6,1.9-8.2l49.1-26
	c0,0,10.4,0.2,24.3-21.3c9-13.7,19-26.8,29.7-39.2c0,0-0.3-0.4-0.8-1.1c0.5-0.6,0.8-0.9,0.8-0.9s-0.6-0.8-1.5-2.1l7.6-8.7
	c-0.2,3.9-0.3,7.9-0.1,11.9l3.9,13.2l2.2,73.8c0,0-2.4,7,12.9,14.1c12.9,6,33.4,16,39.4,19c-0.2,0.5-0.3,0.8-0.3,0.8l1.8-0.1
	l0.3,0.1l0,0c29.9-2.7,28.9,27.2,28.9,27.2s2,60.7-7.1,81.8s-7.8,47.3-7.8,47.3s0.9-4.5,6,1.4c-0.1,0.5-0.2,1.1-0.3,1.6
	c-2.9,14.6-9,45.8-10.1,58.4c-1.2,11.5-3.5,22.9-6.6,34l-3,55.8l19.1,0.9l-0.2,2c-0.2,2.1-1.4,3.9-3.2,4.9c-6.5,3.5-22,16-20.8,54.4
	l-0.7,6.2c-1.1,10.5-4.2,20.6-9.3,29.8c-0.4,0.8-0.8,1.5-1.2,2.2c0.1-0.4,0.2-0.8,0.5-1.1c0,0-9.9,2.1-7.9,28.9s5.1,31.5,9.2,31.8
	s24,5.2,22.9-4.7s-2-31.9-0.7-35.2s6.7-12.4,1.6-14.6l0,0c1.5-6.2,2.2-12.5,2.2-18.8c0,0,10-15.8,17.2-21.6s11-15.8,13.6-28.7
	c0.2-0.8,21.1-14.8,18-26.3c-0.5-2-0.9-3.8-1.2-5.4c-0.1-0.7-0.2-1.4-0.3-2h0.4l4.2-25.5v24.8l2.5,0.3l-0.1,2l-1.1,23.8
	c-0.2,4.6-1.2,9.2-3,13.5c-4.5,10.7-12.8,34.4-10.5,60l-0.2,22.9c-0.7,0.1-11.1,2.6-9.1,28.5c2,26.8,5.1,31.5,9.2,31.8
	s24,5.2,22.9-4.7s-2-31.9-0.7-35.2s3.7-12.2-1.4-14.4c0-3,0.8-6,2.1-8.6c2.2-3.8,9.7-21.9,15.3-35.8c5.8-14.1,9-29.1,9.5-44.3
	c0-0.2,0-0.3,0-0.5c0.2-5.1,1.3-10.2,3.2-14.9c2.3-5.3,4.1-10.8,5.4-16.4c0.1-0.7,0.2-1.3,0.3-2l4.9,0.7l16.7-72.1
	c0,0,4.6-39.1,2.3-56.7c-0.1-0.7-0.2-1.4-0.3-2l1,0.1c0,0,3.4-8.7,2.4-45.9s6.8-49,6.8-49c4.2-13.4,8.9-17.9,11.6-19.4l0,0
	c0.7-0.4,1.5-0.7,2.3-0.8l12.6,14.4l0,0l2.3,2.7c0-0.1,0-0.1,0-0.2l1,1.2c-0.1-0.6-0.1-1.2-0.1-1.8c6.7,3.9,22.3,13,31.6,19.6
	c12.1,8.5,15.4,7.5,26,6.7c6.4-0.5,15.1-4.1,20.9-6.9l0.5-0.2c1.6,0.8,3.2,1.5,4.9,2c0,0,17.1,14.5,18.7-11.9
	S801.1,284.6,801.1,284.6z M358.1,592.2c-1.7-0.5-3.4-1.2-5-2.1L358.1,592.2z M331.3,306.3l0.1,3.8l-0.3,0.1
	C331.2,308.9,331.3,307.6,331.3,306.3z M598.5,641v1.5C598.1,642.1,598.1,641.4,598.5,641z"/>
<rect x="624" y="201.6" class="st2" width="29" height="30.5"/>
<path class="st3" d="M588.8,553.8c-2.5,12.8-6.3,22.7-13.3,28.5s-16.8,21.5-16.8,21.5c-0.2,20.8-5.7,27.2-5.7,27.2l-5.7,1.5h-14
	c0,0-2.5-7-3-11.2c-0.2-1.4,0.8-3.7,2.2-6.2c5-9.2,8.1-19.2,9.2-29.6l0.7-6.2c-1.2-38.2,14-50.6,20.4-54.1c1.8-1,3-2.8,3.2-4.8l0,0
	l1.1-10.9l37.7,1.9c0,0-0.8,3.3,0.6,11c0.3,1.6,0.7,3.4,1.2,5.3C609.4,539.1,588.9,553,588.8,553.8z"/>
<path class="st3" d="M652.6,527.4c-1.3,5.6-3.1,11-5.3,16.3c-2,4.7-3,9.7-3.2,14.8c0,0.2,0,0.3,0,0.5c-0.5,15.1-3.6,30-9.3,44.1
	c-5.5,13.8-12.9,31.8-15.1,35.6c-3.7,6.3-1.5,17-1.5,17l-21.2-1.5l0.4-35.7c-2.2-25.5,5.9-49,10.3-59.6c1.8-4.3,2.8-8.8,3-13.4
	l1-23.7l0.3-7c0,0,37.5-5.3,40.6,3.2C653.6,520.4,653.4,523.7,652.6,527.4z"/>
<path class="st4" d="M605.2,522.3l-39.5-1.9l1.1-10.9l37.7,1.8C604.6,511.3,603.8,514.6,605.2,522.3z"/>
<path class="st4" d="M652.6,527.4l-40.9-5.5l0.3-7c0,0,37.5-5.3,40.6,3.2C653.6,520.4,653.4,523.7,652.6,527.4z"/>
<path class="st5" d="M674.1,454.5l-16.3,71.7l-48.3-6.5V495l-4.2,25.3l-58-2.8l3-55.5c3.1-11.1,5.3-22.4,6.5-33.8
	c1.1-12.5,7.1-43.5,9.9-58c1-4.8,1.6-7.8,1.6-7.8s99.3,20.7,105.8,28.2c1.1,1.3,1.8,4,2.3,7.6C678.6,415.6,674.1,454.5,674.1,454.5z
	"/>
<path class="st4" d="M558.1,459.1c0,0,39.1-20.5,48.6-16.2L558.1,459.1z"/>
<path class="st4" d="M579.4,392.1c0,0,32.5,24.7,33.5,31.3L579.4,392.1z"/>
<path class="st4" d="M570.6,477.1c0,0,23.5-1,31,5L570.6,477.1z"/>
<path class="st4" d="M612.9,450.8c0,0,11.2,36.6,6.3,46.6s-9.8-2.3-9.8-2.3L612.9,450.8z"/>
<path class="st6" d="M597.2,641.3c0,0-11,1.7-9,28.3s5,31.3,9,31.7s23.5,5.2,22.5-4.7s-2-31.7-0.7-35s3.6-12.1-1.4-14.3l-1.1,5.1
	c0,0-10.7-9.8-17-2.7c-0.3-1.7-0.7-3.5-1.3-5.1C597.6,643.1,596.2,642.3,597.2,641.3z"/>
<path class="st3" d="M798.6,314.1c0,0-2.5,1.4-6.2,3.2c-5.7,2.7-14.2,6.3-20.5,6.8c-10.4,0.9-13.6,1.9-25.5-6.6
	c-9.1-6.5-24.4-15.6-31-19.5l-2.9-1.7l-0.3-0.2V296l5.5-15.1l19.5-10.4l4.8,4.1l14.4,12.4c0,0,2.2,3.6,5.9,3.4s23,1.4,23,1.4
	l3.7,0.6l7.7,1.3L798.6,314.1z"/>
<path class="st4" d="M798.6,314.1c0,0-2.5,1.4-6.2,3.2c-3.9-2-8.8-5.8-6.9-11.9c1.7-5.5,2.2-9.9,3.5-13l7.7,1.3L798.6,314.1z"/>
<path class="st3" d="M795.9,287.1c0,0,21.8-6.2,20.1,20S797.7,319,797.7,319s-14.2-3.8-11.2-13.6S788.6,289.5,795.9,287.1z"/>
<path class="st3" d="M570.4,202.1l-22.7,9.5l-0.3,0.1l-0.2-0.1l-1.4-0.7c-5.9-2.9-26-12.9-38.7-18.8c-15-7-12.7-14-12.7-14
	l-2.2-73.3l-3.8-13.2c0,0-2.7-44.6,19-55.8c21.7-11.2,7.7,64.7,7.7,64.7l1.7,15.8c1.1,10.1,3.1,20,6,29.8c0.9,3.2,1.5,6.5,1.8,9.8
	c0.7,10.7,5.7,9.9,5.7,9.9c7.9,1.2,15.5,3.8,22.5,7.7c2.6,1.4,5.1,3,7.5,4.7L570.4,202.1z"/>
<path class="st3" d="M651.1,237.1l-19.3-2c0,0,5.7-8.5,8.2-16.7c0.4-1.1,0.6-2.3,0.8-3.5c0.6-3.3,0.4-6.3-1.1-8.5
	c-5.7-8.3,33.7-20,33.7-20c-0.5,4.6-0.6,9.2-0.4,13.9c0.1,3.2,0.4,6.4,1,9.6c1.2,6.5,3.6,12.6,8.1,15.7
	C694.4,234.1,651.1,237.1,651.1,237.1z"/>
<path class="st4" d="M651.1,237.1l-19.3-2c0,0,5.7-8.5,8.2-16.7c2.2,3.2,3,3.1,6.1,3.7c0,0,19.5,2.9,27.9-12.2
	c1.2,6.5,3.6,12.6,8.1,15.7C694.4,234.1,651.1,237.1,651.1,237.1z"/>
<path class="st4" d="M715.4,298c0,0.6,0,1.2,0.1,1.8l-3-3.5l-0.2-0.3l5.5-15.1l19.5-10.4l4.8,4.1C735.1,277.3,715.7,285.7,715.4,298
	z"/>
<path class="st4" d="M570.4,202.1l-22.7,9.5h-0.6l-1.8,0.1c0,0,0.1-0.3,0.3-0.8c1.9-4.6,10.7-27,6.9-37.6c2.6,1.4,5.1,3,7.5,4.7
	L570.4,202.1z"/>
<path class="st4" d="M676.4,398.1c-8.8-0.8-97.1-9-105.3-21.9c-1.3-2.1-2.8-4.1-4.4-6c1-4.8,1.6-7.8,1.6-7.8s99.3,20.7,105.8,28.2
	C675.2,391.7,675.9,394.5,676.4,398.1z"/>
<path class="st2" d="M646.1,223.1c0,0,19.7,2.9,28.1-12.4c0,0,13.9,11.4,22.3,12.4s47,49.7,47,49.7s-31,10-29,26l-14.7-17
	c0,0-7.3-0.3-13.7,20c0,0-7.7,11.7-6.7,48.7s-2.3,45.7-2.3,45.7s-97.3-8.3-106-22s-10-7-10-7s-1.3-26,7.7-47s7-81.3,7-81.3
	s1-29.7-28.3-27c0,0,12.3-28.7,6.7-39.7c0,0,16.9,4.6,28.9,4.7c7.4,0.1,14.6,1.8,21.3,5c3.6,1.8,6.9,4,8.8,6.7c5.7,8,15,4.3,15,4.3
	c2.4,7.3,5.3,14.5,8.7,21.3c0.4,0.7,0.8,1.5,1.2,2.1c0.6,1,1.2,2,1.8,2.8C642.2,222.6,642.8,222.5,646.1,223.1z"/>
<path class="st4" d="M673,200.3c-1.1,1.5-2.2,2.9-3.5,4.2c-6.6,6.7-15.6,10.5-25,10.5c-1.2,0-2.4-0.1-3.6-0.2
	c0.6-3.3,0.4-6.3-1.1-8.5c-5.7-8.3,33.7-20,33.7-20C673,191,672.8,195.7,673,200.3z"/>
<path class="st3" d="M679.4,179.1c0,19.3-15.7,35-35,35s-35-15.7-35-35s15.7-35,35-35c19.3-0.1,34.9,15.5,35,34.7
	C679.4,179,679.4,179,679.4,179.1z"/>
<path class="st4" d="M696.8,259.1l0.7,23.4c0,0,10.5-8.4,10.8-16.4S696.8,259.1,696.8,259.1z"/>
<path class="st4" d="M612.4,282.5c0,0,27.5,37.8,43.5,41.6S618.4,294.8,612.4,282.5z"/>
<path class="st4" d="M641.6,286.5c0,0,15.3,17.3,26.3,19.5L641.6,286.5z"/>
<path class="st4" d="M587.6,330.1c0,0,28,27.5,44,29.2L587.6,330.1z"/>
<path class="st4" d="M679.4,179.1c0,9.1-3.6,17.9-10,24.5l-3.8-2.4c-1.5-0.8-2.8-1.9-3.7-3.2c-1.3-2.1-0.9-4.8-0.8-7.2
	c0.2-5.2-1.2-10.9-5.3-14.2c-6.6-5.3-17.3-2.4-24-7.6c-1.6-1.4-3.1-3-4.2-4.7l-6.3-8.5c-0.4-0.5-0.8-1-1.3-1.6
	c13.8-13.6,35.9-13.4,49.5,0.4C675.8,161.1,679.4,170,679.4,179.1L679.4,179.1z"/>
<path class="st7" d="M623.3,134.3c3.1-2.4,7-3.6,10.5-5.4s6.6-4,10.2-5.5s7.6-2.4,11.2-1.1c7.8,2.7,10.8,13.6,18.8,15.6
	c1.4,0.3,2.8,0.4,4.1,0.6c5.3,1,9.9,4.2,12.7,8.9c2.7,4.6,4.1,9.9,4,15.2c0.1,3-0.3,5.9-1.3,8.7c-2.4,6.5-8.3,11-12.4,16.6
	c-3.8,5.4-5.8,11.9-5.8,18.5l-9.8-6.1c-1.5-0.8-2.8-1.9-3.7-3.2c-1.3-2.1-0.9-4.8-0.8-7.2c0.2-5.2-1.2-10.9-5.3-14.2
	c-6.6-5.3-17.3-2.4-24-7.6c-1.6-1.4-3.1-3-4.2-4.7l-6.3-8.5c-1.4-1.8-4-4.1-4.6-6.4C615.3,143.6,619.8,137,623.3,134.3z"/>
<path class="st4" d="M666.7,199.1c-1.5-0.8-2.8-1.9-3.7-3.2c-1.3-2.1-0.9-4.8-0.8-7.2c0.2-5.2-1.2-10.9-5.3-14.2
	c-6.6-5.3-17.3-2.4-24-7.6c-1.6-1.4-3.1-3-4.2-4.7l-6.3-8.5c-1.4-1.8-4-4.1-4.6-6.4c-1.1-3.9,1.7-8.9,4.6-12.1
	c-3.3,3.1-6.9,8.9-5.7,13.2c0.6,2.2,3.2,4.5,4.6,6.4l6.3,8.5c1.2,1.8,2.6,3.4,4.2,4.7c6.7,5.2,17.3,2.3,24,7.6
	c4.1,3.3,5.5,8.9,5.3,14.2c-0.1,2.5-0.5,5.1,0.8,7.2c1,1.4,2.3,2.5,3.7,3.2l9.8,6.1c0-0.6,0-1.2,0.1-1.7L666.7,199.1z"/>
<path class="st6" d="M531.8,616.2c0,0-9.7,2-7.7,28.7s5,31.3,9,31.7s23.5,5.2,22.5-4.7s-2-31.7-0.7-35s6.6-12.3,1.6-14.5l-4.1,5.3
	c0,0-10.7-9.8-17-2.7C535.4,625.1,529.5,618.6,531.8,616.2z"/>
<path class="st4" d="M538,632.8c2.1,1,4.1,2.2,6.2,3.2c2.1,1.1,4.4,1.6,6.7,1.6c1,0,2-0.4,2.7-1"/>
<path class="st4" d="M602.1,658.9c1.2,1.2,2.2,2.6,3.6,3.6c2,1.3,4.6,1.4,7,1.5c0.4,0,0.8,0,1.2-0.2c0.4-0.2,0.8-0.6,1.1-1l1.3-1.7"
	/>
<path class="st8" d="M437.8,215.5c0,0-4.5-42.7,13-32.2s5.5,29.2,5.5,29.2l-4.1,13.2L437.8,215.5z"/>
<path class="st8" d="M465.8,79.1l10-9.8c0,0,19.2-55.2,38.2-41c19,14.2-24.1,50-24.1,50l-11.4,13.3L465.8,79.1z"/>
<path class="st9" d="M319.4,297.3l-0.5,11.3c0,0,9.2,16,13,17.2s3.5-33.8,3.5-33.8L319.4,297.3z"/>
<path class="st10" d="M319.4,297.3l-0.5,11.3c0,0,9.2,16,13,17.2s3.5-33.8,3.5-33.8L319.4,297.3z"/>
<polygon class="st8" points="334.8,284.9 335.4,326.6 381.9,326.6 378.4,302.3 "/>
<path class="st11" d="M345.6,389.1l2.2,13.3l27.2,60.3c0,0,12.3,19,2.3,35s-20.3,41-22,56.2s-14.8,30-14.8,30l28.7,12.2
	c0,0,2-23.8,10-35s33.7-60.3,33.7-60.3s8.2-7.3,6.3-29.2s-1.7-37.2-1.7-37.2l-2.8-34.8L345.6,389.1z"/>
<path class="st4" d="M345.6,389.1l2.2,13.3l27.2,60.3c0,0,12.3,19,2.3,35s-20.3,41-22,56.2s-14.8,30-14.8,30l28.7,12.2
	c0,0,2-23.8,10-35s33.7-60.3,33.7-60.3s8.2-7.3,6.3-29.2s-1.7-37.2-1.7-37.2l-2.8-34.8L345.6,389.1z"/>
<path class="st12" d="M342.9,582.1c0,0-30.7,9.3-20.5,24.7s43.2,44.5,56.5,43.5s8-10.8,8-10.8l-11.2-11c0,0-2-23.3-1.2-30.2
	s-9.5-10-10.8-6S342.9,582.1,342.9,582.1z"/>
<path class="st11" d="M362.3,308.9l-24.3,2.7c-4.5,0.5-7.9,4.4-7.8,8.9c0.3,9.7,0.4,25.2-0.9,28c-2,4.2-8.2,33.8,18.5,54l36.2,11.5
	l-58,4.2l1.8,32.2l9-5l110,5c0,0,31.2-3.2,10-37s-66.2-67-66.2-67l-0.5-26.3l-3.3-7.7L362.3,308.9z"/>
<path class="st4" d="M392.4,413.5c8-3.5,17-3.5,25,0H392.4z"/>
<path class="st12" d="M328.8,418c0,0-35.8-5.2-36,1.7s5,73.3,22.2,68.8s9.8-26.5,9.8-26.5l12.8-12.3c0,0,1.3-6.8-7.2-6.2L328.8,418z
	"/>
<path class="st9" d="M388.1,231.5l14.2,16.2c0,0,6.2,7.7,13.5-4c7.3-11.7,21-32.5,21-32.5s15.2,13.3,19.2,10.7s-36.8,55.5-36.8,55.5
	s-13,19.2-32.3-3.5l-5.7-2.7L388.1,231.5z"/>
<path class="st10" d="M388.1,231.5l14.2,16.2c0,0,6.2,7.7,13.5-4c7.3-11.7,21-32.5,21-32.5s15.2,13.3,19.2,10.7
	s-36.8,55.5-36.8,55.5s-13,19.2-32.3-3.5l-5.7-2.7L388.1,231.5z"/>
<circle class="st8" cx="344.8" cy="136.2" r="29.5"/>
<path class="st4" d="M344.8,152.1c0,0-25.4,12-22.4,33s3.5,47.5,3.5,47.5s11.5,17-3.8,49.5c0,0-9.8,16.5-3.2,28.5c0,0,7.2-19,25.9-5
	s48.6,20.5,48.6,20.5s-15.5-68-6-77.5c0,0,16.5-24.5,1.5-40s-7.5-30-7.5-30l48.2-25.8c0,0,10.2,0.2,23.8-21.2
	c8.8-13.6,18.6-26.7,29.2-39c0,0-10.3-15.5-20-16.7c0,0-3.8,4-6.5,14.8c-1.4,5.8-11.1,15.4-19.8,23.1c-6.2,5.5-12.2,11.2-18.2,17
	c-4.4,4.2-14.3,10.3-35.7,13.8C347.1,150.3,344.8,152.1,344.8,152.1z"/>
<path class="st2" d="M344.8,150.1c0,0-25.4,12-22.4,33s3.5,47.5,3.5,47.5s11.5,17-3.8,49.5c0,0-9.8,16.5-3.2,28.5c0,0,7.2-19,25.9-5
	s48.6,20.5,48.6,20.5s-15.5-68-6-77.5c0,0,16.5-24.5,1.5-40s-7.5-30-7.5-30l48.2-25.8c0,0,10.2,0.2,23.8-21.2
	c8.8-13.6,18.6-26.7,29.2-39c0,0-10.3-15.5-20-16.7c0,0-3.8,4-6.5,14.8c-1.4,5.8-11.1,15.4-19.8,23.1c-6.2,5.5-12.2,11.2-18.2,17
	c-4.4,4.2-14.3,10.3-35.7,13.8C347.1,148.3,344.8,150.1,344.8,150.1z"/>
<path class="st4" d="M366.6,275.8c0,0,19.7,29,20.2,34C386.8,309.8,383.8,278.6,366.6,275.8z"/>
<path class="st4" d="M340.8,178.1c0,0,13.7,16.5,33.5,2.7C363.2,184.6,351.1,183.6,340.8,178.1z"/>
<path class="st4" d="M351.4,105.4c-0.4-1.5-1.1-2.9-2.2-4c-4.5-5.7-9.4-11.5-16.2-14.2c-9.2-3.4-19.5-0.5-25.5,7.3
	c-2.4,3.3-3.9,7.1-6,10.6c-3.9,6.5-9.8,11.4-16.2,15.4c-3.9,2.4-8,4.4-11.6,7.1c-13.3,9.8-19.4,27.8-16.1,44
	c1.5,7.1,4.6,14.1,3.7,21.2c-0.6,5.6-3.6,10.6-6.6,15.3s-6.2,9.5-7.4,15s0.1,11.9,4.6,15.2c1.7,1.2,3.7,2,5.1,3.5
	c0.9,1.1,1.7,2.4,2.4,3.7c4.8,8.9,13.1,15.4,22.8,18c4.3,1.1,10.1,0.7,11.6-3.4c0.2-0.7,0.5-1.4,0.8-2.1c1.4-2,4.5-0.9,6.8,0.3
	c5,2.6,10.5,4.2,16.1,4.6c2.2,0.3,4.5,0,6.6-0.8c1.8-0.9,3.3-2.2,4.5-3.9c5.3-6.9,6.8-15.8,7.7-24.4c0.6-5.6,1-11.3-0.1-16.8
	c-1.7-8.9-7.1-17.1-6.3-26.1c0.9-9.6,8.6-17.4,9.8-27c0.6-5-0.6-10-3.5-14.2c-1.1-1.3-2-2.7-2.7-4.2c-0.7-1.5-0.4-3.4,0.8-4.6
	c0.6-0.4,1.3-0.8,2.1-1c6.4-2.5,9.9-8.9,10.3-15.5c0.2-2.5,0-4.8,0.7-7.2C348.6,113.5,352,109.4,351.4,105.4z"/>
<path class="st13" d="M349.4,105.4c-0.4-1.5-1.1-2.9-2.2-4c-4.5-5.7-9.4-11.5-16.2-14.2c-9.2-3.4-19.5-0.5-25.5,7.3
	c-2.4,3.3-3.9,7.1-6,10.6c-3.9,6.5-9.8,11.4-16.2,15.4c-3.9,2.4-8,4.4-11.6,7.1c-13.3,9.8-19.4,27.8-16.1,44
	c1.5,7.1,4.6,14.1,3.7,21.2c-0.6,5.6-3.6,10.6-6.6,15.3s-6.2,9.5-7.4,15s0.1,11.9,4.6,15.2c1.7,1.2,3.7,2,5.1,3.5
	c0.9,1.1,1.7,2.4,2.4,3.7c4.8,8.9,13.1,15.4,22.8,18c4.3,1.1,10.1,0.7,11.6-3.4c0.2-0.7,0.5-1.4,0.8-2.1c1.4-2,4.5-0.9,6.8,0.3
	c5,2.6,10.5,4.2,16.1,4.6c2.2,0.3,4.5,0,6.6-0.8c1.8-0.9,3.3-2.2,4.5-3.9c5.3-6.9,6.8-15.8,7.7-24.4c0.6-5.6,1-11.3-0.1-16.8
	c-1.7-8.9-7.1-17.1-6.3-26.1c0.9-9.6,8.6-17.4,9.8-27c0.6-5-0.6-10-3.5-14.2c-1.1-1.3-2-2.7-2.7-4.2c-0.7-1.5-0.4-3.4,0.8-4.6
	c0.6-0.4,1.3-0.8,2.1-1c6.4-2.5,9.9-8.9,10.3-15.5c0.2-2.5,0-4.8,0.7-7.2C346.6,113.5,350,109.4,349.4,105.4z"/>
<g class="st14">
	<path d="M289.8,258c-0.4,0.7-0.6,1.4-0.8,2.1c-0.9,2.5-3.4,3.6-6.1,3.9c3.8,0.4,7.8-0.5,9.1-3.9c0.2-0.7,0.5-1.4,0.8-2.1
		c0.3-0.4,0.6-0.7,1-0.9C292.2,256.7,290.7,256.7,289.8,258z"/>
	<path d="M349.4,105.4c-0.3-1.5-1.1-2.9-2.2-4c-4.5-5.7-9.4-11.5-16.2-14.2c-2.9-1.1-6.1-1.6-9.2-1.4c2.1,0.1,4.2,0.6,6.2,1.4
		c6.7,2.7,11.6,8.5,16.2,14.2c1.1,1.1,1.8,2.5,2.2,4c0.6,4-2.8,8.1-3.9,11.9c-0.7,2.4-0.5,4.7-0.7,7.2c-0.5,6.6-3.9,13-10.3,15.5
		c-0.7,0.2-1.4,0.6-2.1,1c-1.2,1.2-1.5,3-0.8,4.6c0.7,1.5,1.6,2.9,2.7,4.2c2.9,4.1,4.1,9.2,3.5,14.2c-1.2,9.6-9,17.4-9.8,27
		c-0.8,9,4.6,17.3,6.3,26.1c1.1,5.5,0.7,11.2,0.1,16.8c-0.9,8.6-2.4,17.5-7.7,24.4c-1.1,1.6-2.7,2.9-4.4,3.9c-1,0.5-2.1,0.7-3.3,0.8
		c2.1,0.3,4.3,0,6.3-0.8c1.8-0.9,3.3-2.2,4.5-3.8c5.3-6.8,6.8-15.8,7.7-24.4c0.6-5.6,1-11.3-0.1-16.8c-1.7-8.9-7.1-17.1-6.3-26.1
		c0.9-9.6,8.6-17.4,9.8-27c0.6-5-0.7-10-3.5-14.2c-1.1-1.3-1.9-2.7-2.7-4.2c-0.7-1.6-0.4-3.4,0.8-4.6c0.6-0.4,1.3-0.8,2.1-1
		c6.4-2.5,9.9-8.9,10.3-15.5c0.2-2.5,0-4.8,0.7-7.2C346.7,113.5,350,109.4,349.4,105.4z"/>
</g>
<path class="st4" d="M311.6,458.3c3.5,3.8,8.9,5.3,13.8,3.8"/>
<path class="st4" d="M375.7,629.3c-1.9,1.6-4.5,2.2-6.9,1.7"/>
<ellipse class="st0" cx="105.2" cy="655.8" rx="26.9" ry="4.5"/>
<ellipse class="st2" cx="842.4" cy="746.4" rx="26.9" ry="4.5"/>
<ellipse class="st0" cx="842.4" cy="658.8" rx="26.9" ry="4.5"/>
<ellipse class="st0" cx="181.5" cy="698" rx="26.9" ry="4.5"/>
<ellipse class="st2" cx="927.6" cy="698" rx="40.2" ry="6.8"/>
<ellipse class="st0" cx="349.5" cy="751.3" rx="90.8" ry="15.3"/>
<path class="st2" d="M944.2,686.9c1.8-1.5,3.2-3.5,3.8-5.8c0.5-2.3-0.5-5-2.7-5.9c-2.5-0.9-5.1,0.8-7.1,2.5s-4.3,3.7-6.9,3.3
	c2.7-2.5,4-6.2,3.2-9.8c-0.1-0.7-0.4-1.4-0.9-2c-1.4-1.5-3.8-0.8-5.5,0.3c-5.2,3.7-6.7,10.7-6.7,17.1c-0.5-2.3-0.1-4.7-0.1-7
	s-0.7-5-2.6-6.2c-1.2-0.7-2.6-1-4-1c-2.3-0.1-4.9,0.2-6.5,1.9c-2,2.1-1.5,5.7,0.3,8s4.3,3.8,6.8,5.4c1.9,1.2,3.6,2.7,4.8,4.6
	c0.1,0.3,0.3,0.5,0.4,0.8h14.7C938.5,691.5,941.5,689.4,944.2,686.9z"/>
<path class="st2" d="M859.1,735.5c1.8-1.5,3.2-3.5,3.8-5.8c0.5-2.3-0.5-5-2.7-5.9c-2.5-0.9-5.1,0.8-7.1,2.5s-4.3,3.7-6.9,3.3
	c2.7-2.5,4-6.2,3.2-9.8c-0.1-0.7-0.4-1.4-0.9-2c-1.4-1.5-3.8-0.8-5.5,0.3c-5.2,3.7-6.7,10.7-6.7,17.1c-0.5-2.3-0.1-4.7-0.1-7
	s-0.7-5-2.6-6.2c-1.2-0.7-2.6-1-4-1c-2.3-0.1-4.9,0.2-6.5,1.9c-2,2.1-1.5,5.7,0.3,8s4.3,3.8,6.8,5.4c1.9,1.2,3.6,2.7,4.8,4.6
	c0.1,0.3,0.3,0.5,0.4,0.8H850C853.3,740.1,856.3,738,859.1,735.5z"/>
<path class="st15" d="M212,645.3c0,0-14-47.7,2.6-82.8c7.1-14.7,9.3-31.3,6.1-47.3c-1.5-7.6-3.8-15-6.7-22.2"/>
<path class="st2" d="M224.4,470.8c0,5.8-10.6,22.8-10.6,22.8s-10.6-17-10.6-22.8c-0.2-5.8,4.4-10.7,10.3-10.9
	c5.8-0.2,10.7,4.4,10.9,10.3C224.4,470.4,224.4,470.6,224.4,470.8L224.4,470.8z"/>
<path class="st2" d="M241.9,503.2c-3.2,4.9-21.3,13.4-21.3,13.4s0.3-20,3.5-24.9c3.3-4.8,9.9-6,14.7-2.7
	C243.5,492.1,244.9,498.4,241.9,503.2z"/>
<path class="st2" d="M241.2,558.5c-5.2,2.6-25.1,0.8-25.1,0.8s10.4-17.1,15.6-19.7c5.3-2.5,11.6-0.2,14.1,5.1
	C248.1,549.8,246.1,555.9,241.2,558.5L241.2,558.5z"/>
<path class="st2" d="M231.2,600.3c-4.7,3.5-24.6,5-24.6,5s7.3-18.6,12-22.1c4.9-3.2,11.4-1.9,14.7,2.9
	C236.2,590.7,235.3,596.8,231.2,600.3L231.2,600.3z"/>
<path class="st2" d="M198.4,517.7c4.2,4.1,23.7,8.3,23.7,8.3s-4.8-19.4-9-23.5c-4.3-4-11-3.7-15,0.6
	C194.4,507.3,194.5,513.7,198.4,517.7L198.4,517.7z"/>
<path class="st2" d="M187.3,566.7c5.2,2.6,25.1,0.8,25.1,0.8s-10.4-17.1-15.6-19.7c-5.3-2.5-11.6-0.3-14.1,5
	C180.3,557.9,182.3,564,187.3,566.7z"/>
<path class="st2" d="M183.1,615.8c4.7,3.5,24.6,5,24.6,5s-7.3-18.6-12-22.1c-4.9-3.2-11.4-1.9-14.7,2.9
	C178,606.2,178.9,612.2,183.1,615.8L183.1,615.8z"/>
<path class="st16" d="M178.8,642.3c0,0,17.1-3.4,21.7-7.9s25.1-12.5,27.4-6.8s30.8,24.9,11.4,28.3s-45.6,4.5-51.3,2.3
	S178.8,642.3,178.8,642.3z"/>
<path class="st17" d="M239.3,653.8c-19.4,3.4-45.6,4.5-51.3,2.3c-4.4-1.7-7.4-10-8.6-13.9l-0.6,0.1c0,0,3.4,13.6,9.1,15.9
	s31.9,1.1,51.3-2.3c5.6-1,7.2-3.3,6.6-6.2C245.4,651.6,243.4,653,239.3,653.8z"/>
<path class="st2" d="M847.9,593.2c0,0,5.5,7.2-2.5,18s-14.7,20-12,26.8c0,0,12.1-20.2,22-20.4S858.8,605.3,847.9,593.2z"/>
<path class="st4" d="M847.9,593.2c0.5,0.7,0.9,1.5,1.1,2.3c9.6,11.3,14.7,21.8,5.5,22.1c-8.6,0.2-18.9,15.7-21.4,19.5
	c0.1,0.3,0.2,0.6,0.3,0.9c0,0,12.1-20.2,22-20.4S858.8,605.3,847.9,593.2z"/>
<path class="st18" d="M858.2,602.4c0,2.5-0.3,4.6-0.6,4.6s-0.6-2-0.6-4.6s0.3-1.3,0.7-1.3S858.2,599.8,858.2,602.4z"/>
<path class="st18" d="M861.7,605.4c-2.2,1.2-4.2,1.9-4.3,1.6s1.5-1.5,3.7-2.7s1.3-0.3,1.5,0S863.9,604.2,861.7,605.4z"/>
<path class="st2" d="M818.9,593.2c0,0-5.5,7.2,2.5,18s14.7,20,12,26.8c0,0-12.1-20.2-22-20.4S808.1,605.3,818.9,593.2z"/>
<path class="st4" d="M818.9,593.2c-0.5,0.7-0.9,1.5-1.1,2.3c-9.6,11.3-14.7,21.8-5.5,22.1c8.6,0.2,18.9,15.7,21.4,19.5
	c-0.1,0.3-0.2,0.6-0.3,0.9c0,0-12.1-20.2-22-20.4S808.1,605.3,818.9,593.2z"/>
<path class="st18" d="M808.7,602.4c0,2.5,0.3,4.6,0.6,4.6s0.6-2,0.6-4.6s-0.3-1.3-0.7-1.3S808.7,599.8,808.7,602.4z"/>
<path class="st18" d="M805.2,605.4c2.2,1.2,4.2,1.9,4.3,1.6s-1.5-1.5-3.7-2.7s-1.3-0.3-1.5,0S803,604.2,805.2,605.4z"/>
<path class="st16" d="M810.5,637.1c0,0,15.4-0.5,20-3.8s23.6-7.2,24.8-2s23.1,26.3,5.7,26.4s-40.3-2.7-44.9-5.5
	S810.5,637.1,810.5,637.1z"/>
<path class="st17" d="M861.3,656c-17.3,0.1-40.3-2.7-44.9-5.5c-3.5-2.1-4.9-9.8-5.4-13.4h-0.5c0,0,1,12.4,5.6,15.2
	s27.6,5.7,44.9,5.5c5,0,6.7-1.8,6.6-4.5C866.9,654.9,865,655.9,861.3,656z"/>
</svg>
