<svg id="Camada_1" data-name="Camada 1" xmlns="http://www.w3.org/2000/svg" xmlns:xlink="http://www.w3.org/1999/xlink" viewBox="0 0 1366 497"><defs><style>.cls-1{isolation:isolate;font-size:67.29px;fill:#9a9aef;font-family:Roboto-Regular, Roboto;}.cls-2{letter-spacing:-0.01em;}.cls-3{letter-spacing:-0.01em;}.cls-4{letter-spacing:-0.01em;}.cls-5{letter-spacing:-0.01em;}.cls-6{fill:url(#Gradiente_sem_nome_7);}</style><linearGradient id="Gradiente_sem_nome_7" x1="92.6" y1="250.22" x2="1273.29" y2="250.22" gradientUnits="userSpaceOnUse"><stop offset="0" stop-color="#6c63ff"/><stop offset="0.11" stop-color="#665fe4"/><stop offset="0.32" stop-color="#5a57b5"/><stop offset="0.52" stop-color="#525290"/><stop offset="0.71" stop-color="#4b4d75"/><stop offset="0.87" stop-color="#474b65"/><stop offset="1" stop-color="#464a5f"/></linearGradient></defs><title>tasksy</title><text class="cls-1" transform="translate(115.86 445.27)">Imp<tspan class="cls-2" x="115.03" y="0">r</tspan><tspan class="cls-3" x="137.14" y="0">o</tspan><tspan class="cls-4" x="175.03" y="0">v</tspan><tspan x="207.19" y="0">e </tspan><tspan class="cls-3" x="259.5" y="0">y</tspan><tspan x="290.85" y="0">our work envi</tspan><tspan class="cls-5" x="689.92" y="0">r</tspan><tspan x="712.03" y="0">onment</tspan></text><path class="cls-6" d="M122.34,74.89h37.32V136.2h35.07v30.15H159.66V309.69q0,11.49,7.79,15.38,4.31,2.26,14.35,2.26,2.66,0,5.74-.13t7.18-.69v29.33a82.56,82.56,0,0,1-13.23,2.67,126.19,126.19,0,0,1-14.87.82q-25.84,0-35.07-13.23t-9.23-34.35V166.35H92.6V136.2h29.73Zm227,148q12.71-1.63,17-10.64,2.46-4.94,2.46-14.2,0-18.94-13.41-27.48T317.05,162q-28.86,0-40.93,15.66-6.75,8.66-8.8,25.76H232.87q1-40.72,26.32-56.66t58.68-15.94q38.71,0,62.88,14.77,24,14.76,24,45.94V318.11q0,5.74,2.36,9.23t9.95,3.48q2.46,0,5.54-.31t6.56-.92v27.27A102.86,102.86,0,0,1,416,359.93a95.93,95.93,0,0,1-12.3.62q-19.07,0-27.68-13.53-4.51-7.18-6.36-20.3-11.28,14.76-32.4,25.63a100.28,100.28,0,0,1-46.55,10.87q-30.56,0-49.94-18.54t-19.38-46.39q0-30.52,19.07-47.31t50-20.69Zm-77.73,99.72q11.69,9.21,27.68,9.21a84.31,84.31,0,0,0,37.73-9q30.76-14.95,30.76-48.94V244.21a62.83,62.83,0,0,1-17.4,7.2,146.21,146.21,0,0,1-20.88,4.11l-22.31,2.87q-20.06,2.66-30.16,8.39-17.13,9.62-17.12,30.69Q259.94,313.42,271.63,322.63Zm215.53-35.7q1.67,18.46,9.42,28.3,14.23,17.84,49.4,17.84,20.93,0,36.84-8.92t15.91-27.58q0-14.15-12.71-21.53-8.13-4.51-32.09-10.46l-29.8-7.38q-28.55-7-42.1-15.58-24.18-15-24.18-41.42,0-31.17,22.76-50.45t61.2-19.28q50.29,0,72.53,29.12,13.92,18.46,13.52,39.78H593a41.82,41.82,0,0,0-9-22.64q-13-14.48-45.13-14.48-21.41,0-32.43,8t-11,21q0,14.3,14.48,22.89,8.35,5.11,24.65,9l24.86,5.95q40.53,9.64,54.32,18.66,21.53,14.15,21.53,44.5,0,29.33-22.53,50.65t-68.62,21.33q-49.62,0-70.28-22.25t-22.11-55.06ZM674.39,54.58h35.48V229.49l94.66-93.29h47.15l-84.41,81.66,89.15,138H809.25L740.17,244.07l-30.31,29.33v82.44H674.39ZM907.14,286.93q1.67,18.46,9.42,28.3,14.23,17.84,49.4,17.84,20.93,0,36.84-8.92t15.91-27.58q0-14.15-12.71-21.53-8.13-4.51-32.09-10.46l-29.8-7.38q-28.55-7-42.1-15.58-24.18-15-24.18-41.42,0-31.17,22.76-50.45t61.2-19.28q50.29,0,72.53,29.12,13.92,18.46,13.52,39.78H1013a41.81,41.81,0,0,0-9-22.64q-13-14.48-45.13-14.48-21.41,0-32.43,8t-11,21q0,14.3,14.48,22.89,8.35,5.11,24.65,9l24.86,5.95q40.53,9.64,54.32,18.66,21.53,14.15,21.53,44.5,0,29.33-22.53,50.65t-68.62,21.33q-49.62,0-70.28-22.25t-22.11-55.06ZM1232.49,136.2h40.81q-7.8,21.13-34.66,96.43Q1218.54,289.26,1205,325q-32,84-45.07,102.46t-45.07,18.44a88.38,88.38,0,0,1-12-.62,94.65,94.65,0,0,1-10.35-2.26V409.36a127.52,127.52,0,0,0,13.92,3.28,54.26,54.26,0,0,0,7.58.62q10.23,0,15-3.38a31.21,31.21,0,0,0,8.09-8.29q1-1.64,7.37-16.78t9.22-22.51L1072.53,136.2h41.83l58.86,178.9Z"/></svg>