<svg id="Camada_1" data-name="Camada 1" xmlns="http://www.w3.org/2000/svg" viewBox="0 0 1366 497"><defs><style>.cls-1{fill:#5c5c8e;}.cls-2{fill:#6c63ff;}</style></defs><title>tasksy</title><path class="cls-1" d="M128.19,445.27h-6.31V397.44h6.31Z"/><path class="cls-1" d="M144.48,409.72l.16,3.94a13.13,13.13,0,0,1,10.55-4.6q7.46,0,10.15,5.72a13.48,13.48,0,0,1,4.62-4.14,13.64,13.64,0,0,1,6.72-1.58q11.7,0,11.89,12.39v23.82H182.5V421.81q0-3.81-1.74-5.7t-5.85-1.89a8.06,8.06,0,0,0-5.62,2,8.19,8.19,0,0,0-2.6,5.44v23.59h-6.11V422q0-7.75-7.59-7.75-6,0-8.18,5.09v26h-6.08V409.72Z"/><path class="cls-1" d="M227.77,427.89q0,8.12-3.71,13.08a11.9,11.9,0,0,1-10.05,5q-6.47,0-10.19-4.11v17.12h-6.08V409.72h5.55l.3,3.94q3.71-4.6,10.32-4.6A12.12,12.12,0,0,1,224,413.9q3.73,4.83,3.73,13.44Zm-6.08-.69q0-6-2.56-9.5a8.26,8.26,0,0,0-7-3.48,8.94,8.94,0,0,0-8.28,4.9v17a9,9,0,0,0,8.35,4.86,8.22,8.22,0,0,0,6.95-3.47Q221.69,434,221.69,427.2Z"/><path class="cls-1" d="M252.68,415.18a18.33,18.33,0,0,0-3-.23q-6,0-8.12,5.09v25.23h-6.08V409.72h5.91l.1,4.11a9.46,9.46,0,0,1,8.48-4.76,6.21,6.21,0,0,1,2.69.46Z"/><path class="cls-1" d="M256,427.17a21,21,0,0,1,2.05-9.4,15.31,15.31,0,0,1,5.72-6.44,15.56,15.56,0,0,1,8.36-2.27,15,15,0,0,1,11.75,5q4.48,5,4.48,13.37v.43a21.18,21.18,0,0,1-2,9.31,15.1,15.1,0,0,1-5.68,6.42,15.74,15.74,0,0,1-8.49,2.3,15,15,0,0,1-11.71-5q-4.48-5-4.48-13.31Zm6.11.72q0,5.91,2.74,9.5a9.3,9.3,0,0,0,14.7,0q2.73-3.63,2.73-10.17a15.18,15.18,0,0,0-2.78-9.48,8.83,8.83,0,0,0-7.38-3.63,8.73,8.73,0,0,0-7.26,3.58Q262.11,421.22,262.11,427.89Z"/><path class="cls-1" d="M307.22,437l8.81-27.3h6.21l-12.75,35.55h-4.63L292,409.72h6.21Z"/><path class="cls-1" d="M342.41,445.93a15.53,15.53,0,0,1-11.76-4.75q-4.53-4.75-4.53-12.7v-1.12a21.33,21.33,0,0,1,2-9.45,15.76,15.76,0,0,1,5.65-6.51,14.21,14.21,0,0,1,7.87-2.35q6.93,0,10.78,4.57t3.84,13.08v2.53H332.19a12.63,12.63,0,0,0,3.07,8.49,9.66,9.66,0,0,0,7.48,3.24,10.59,10.59,0,0,0,5.45-1.31,13.69,13.69,0,0,0,3.91-3.48l3.71,2.89Q351.35,445.93,342.41,445.93Zm-.76-31.87a8.11,8.11,0,0,0-6.18,2.68,13,13,0,0,0-3.09,7.51H350.2v-.46a11.58,11.58,0,0,0-2.5-7.18A7.64,7.64,0,0,0,341.65,414.06Z"/><path class="cls-1" d="M391.6,436.37l8.28-26.65h6.51l-14.29,41q-3.32,8.87-10.55,8.87l-1.15-.1-2.27-.43v-4.93l1.64.13a8.09,8.09,0,0,0,4.81-1.25,9,9,0,0,0,2.84-4.57l1.35-3.61-12.68-35.16h6.64Z"/><path class="cls-1" d="M409.7,427.17a21,21,0,0,1,2.05-9.4,15.31,15.31,0,0,1,5.72-6.44,15.56,15.56,0,0,1,8.36-2.27,15,15,0,0,1,11.75,5q4.48,5,4.48,13.37v.43a21.18,21.18,0,0,1-2,9.31,15.1,15.1,0,0,1-5.68,6.42,15.74,15.74,0,0,1-8.49,2.3,15,15,0,0,1-11.71-5q-4.48-5-4.48-13.31Zm6.11.72q0,5.91,2.74,9.5a9.3,9.3,0,0,0,14.7,0q2.73-3.63,2.73-10.17a15.18,15.18,0,0,0-2.78-9.48,8.83,8.83,0,0,0-7.38-3.63,8.73,8.73,0,0,0-7.26,3.58Q415.81,421.22,415.81,427.89Z"/><path class="cls-1" d="M471.63,441.76q-3.55,4.17-10.42,4.17-5.68,0-8.66-3.3t-3-9.78V409.72h6.08v23q0,8.08,6.57,8.08,7,0,9.27-5.19V409.72h6.08v35.55h-5.78Z"/><path class="cls-1" d="M504,415.18a18.33,18.33,0,0,0-3-.23q-6,0-8.12,5.09v25.23h-6.08V409.72h5.91l.1,4.11a9.46,9.46,0,0,1,8.48-4.76,6.21,6.21,0,0,1,2.69.46Z"/><path class="cls-1" d="M557.68,436.9l6.83-27.17h6.08l-10.35,35.55h-4.93l-8.64-26.94-8.41,26.94h-4.93L523,409.72h6l7,26.61,8.28-26.61h4.9Z"/><path class="cls-1" d="M575.16,427.17a21,21,0,0,1,2.05-9.4,15.31,15.31,0,0,1,5.72-6.44,15.56,15.56,0,0,1,8.36-2.27,15,15,0,0,1,11.75,5q4.48,5,4.48,13.37v.43a21.18,21.18,0,0,1-2,9.31,15.1,15.1,0,0,1-5.68,6.42,15.74,15.74,0,0,1-8.49,2.3,15,15,0,0,1-11.71-5q-4.48-5-4.48-13.31Zm6.11.72q0,5.91,2.74,9.5a9.3,9.3,0,0,0,14.7,0q2.73-3.63,2.73-10.17a15.18,15.18,0,0,0-2.78-9.48,8.83,8.83,0,0,0-7.38-3.63,8.73,8.73,0,0,0-7.26,3.58Q581.28,421.22,581.28,427.89Z"/><path class="cls-1" d="M632.33,415.18a18.33,18.33,0,0,0-3-.23q-6,0-8.12,5.09v25.23h-6.08V409.72h5.91l.1,4.11a9.46,9.46,0,0,1,8.48-4.76,6.21,6.21,0,0,1,2.69.46Z"/><path class="cls-1" d="M647.84,428.81l-3.81,4v12.49H638V394.81H644v30.52l3.25-3.91,11.07-11.7h7.39l-13.83,14.85,15.44,20.7h-7.13Z"/><path class="cls-1" d="M703.44,445.93a15.53,15.53,0,0,1-11.76-4.75q-4.53-4.75-4.53-12.7v-1.12a21.33,21.33,0,0,1,2-9.45,15.76,15.76,0,0,1,5.65-6.51,14.21,14.21,0,0,1,7.87-2.35q6.93,0,10.78,4.57t3.84,13.08v2.53H693.22a12.63,12.63,0,0,0,3.07,8.49,9.65,9.65,0,0,0,7.47,3.24,10.59,10.59,0,0,0,5.45-1.31,13.69,13.69,0,0,0,3.91-3.48l3.71,2.89Q712.37,445.93,703.44,445.93Zm-.76-31.87a8.11,8.11,0,0,0-6.18,2.68,13,13,0,0,0-3.09,7.51h17.81v-.46a11.58,11.58,0,0,0-2.5-7.18A7.64,7.64,0,0,0,702.68,414.06Z"/><path class="cls-1" d="M730.08,409.72l.2,4.47a13,13,0,0,1,10.65-5.13q11.27,0,11.37,12.72v23.49h-6.08V421.75q0-3.84-1.76-5.68t-5.37-1.84a8.78,8.78,0,0,0-5.19,1.58,10.7,10.7,0,0,0-3.48,4.14v25.33h-6.08V409.72Z"/><path class="cls-1" d="M773.19,437l8.8-27.3h6.21l-12.75,35.55h-4.63l-12.88-35.55h6.21Z"/><path class="cls-1" d="M794.09,400.29a3.63,3.63,0,0,1,.9-2.5,3.39,3.39,0,0,1,2.68-1,3.45,3.45,0,0,1,2.69,1,3.59,3.59,0,0,1,.92,2.5,3.47,3.47,0,0,1-.92,2.46,3.51,3.51,0,0,1-2.69,1,3.45,3.45,0,0,1-2.68-1A3.51,3.51,0,0,1,794.09,400.29Zm6.57,45h-6.08V409.72h6.08Z"/><path class="cls-1" d="M827.57,415.18a18.33,18.33,0,0,0-3-.23q-6,0-8.12,5.09v25.23h-6.08V409.72h5.91l.1,4.11a9.47,9.47,0,0,1,8.48-4.76,6.21,6.21,0,0,1,2.69.46Z"/><path class="cls-1" d="M830.89,427.17a21,21,0,0,1,2.05-9.4,15.3,15.3,0,0,1,5.72-6.44,15.56,15.56,0,0,1,8.36-2.27,15,15,0,0,1,11.75,5q4.49,5,4.49,13.37v.43a21.19,21.19,0,0,1-2,9.31,15.1,15.1,0,0,1-5.68,6.42,15.74,15.74,0,0,1-8.49,2.3,15,15,0,0,1-11.71-5q-4.48-5-4.48-13.31Zm6.11.72q0,5.91,2.74,9.5a9.3,9.3,0,0,0,14.7,0q2.73-3.63,2.73-10.17a15.19,15.19,0,0,0-2.78-9.48,8.83,8.83,0,0,0-7.38-3.63,8.73,8.73,0,0,0-7.26,3.58Q837,421.22,837,427.89Z"/><path class="cls-1" d="M876.62,409.72l.2,4.47a13,13,0,0,1,10.65-5.13q11.27,0,11.37,12.72v23.49h-6.08V421.75q0-3.84-1.76-5.68t-5.37-1.84a8.78,8.78,0,0,0-5.19,1.58,10.7,10.7,0,0,0-3.48,4.14v25.33h-6.08V409.72Z"/><path class="cls-1" d="M913.72,409.72l.16,3.94a13.13,13.13,0,0,1,10.55-4.6q7.46,0,10.15,5.72a13.47,13.47,0,0,1,4.62-4.14,13.64,13.64,0,0,1,6.72-1.58q11.7,0,11.89,12.39v23.82h-6.08V421.81q0-3.81-1.74-5.7t-5.85-1.89a8.06,8.06,0,0,0-5.62,2,8.19,8.19,0,0,0-2.6,5.44v23.59h-6.11V422q0-7.75-7.59-7.75-6,0-8.18,5.09v26H908V409.72Z"/><path class="cls-1" d="M981.73,445.93A15.53,15.53,0,0,1,970,441.18q-4.53-4.75-4.53-12.7v-1.12a21.33,21.33,0,0,1,2-9.45,15.76,15.76,0,0,1,5.65-6.51,14.21,14.21,0,0,1,7.87-2.35q6.93,0,10.78,4.57t3.84,13.08v2.53H971.51a12.63,12.63,0,0,0,3.07,8.49,9.65,9.65,0,0,0,7.47,3.24,10.59,10.59,0,0,0,5.45-1.31,13.69,13.69,0,0,0,3.91-3.48l3.71,2.89Q990.67,445.93,981.73,445.93ZM981,414.06a8.11,8.11,0,0,0-6.18,2.68,13,13,0,0,0-3.09,7.51h17.81v-.46a11.58,11.58,0,0,0-2.5-7.18A7.64,7.64,0,0,0,981,414.06Z"/><path class="cls-1" d="M1008.38,409.72l.2,4.47a13,13,0,0,1,10.65-5.13q11.27,0,11.37,12.72v23.49h-6.08V421.75q0-3.84-1.76-5.68t-5.37-1.84a8.78,8.78,0,0,0-5.19,1.58,10.7,10.7,0,0,0-3.48,4.14v25.33h-6.08V409.72Z"/><path class="cls-1" d="M1048,401.12v8.61h6.64v4.7H1048V436.5a4.93,4.93,0,0,0,.89,3.21,3.73,3.73,0,0,0,3,1.07,14.74,14.74,0,0,0,2.89-.39v4.9a17.72,17.72,0,0,1-4.67.65,7.57,7.57,0,0,1-6.14-2.46q-2.07-2.47-2.07-7v-22h-6.47v-4.7h6.47v-8.61Z"/><path class="cls-2" d="M122.34,74.89h37.32V136.2h35.07v30.15H159.66V309.69q0,11.49,7.79,15.38,4.31,2.26,14.35,2.26,2.66,0,5.74-.13t7.18-.69v29.33a82.56,82.56,0,0,1-13.23,2.67,126.19,126.19,0,0,1-14.87.82q-25.84,0-35.07-13.23t-9.23-34.35V166.35H92.6V136.2h29.73Zm227,148q12.71-1.63,17-10.64,2.46-4.94,2.46-14.2,0-18.94-13.41-27.48T317.05,162q-28.86,0-40.93,15.66-6.75,8.66-8.8,25.76H232.87q1-40.72,26.32-56.66t58.68-15.94q38.71,0,62.88,14.77,24,14.76,24,45.94V318.11q0,5.74,2.36,9.23t9.95,3.48q2.46,0,5.54-.31t6.56-.92v27.27A102.86,102.86,0,0,1,416,359.93a95.93,95.93,0,0,1-12.3.62q-19.07,0-27.68-13.53-4.51-7.18-6.36-20.3-11.28,14.76-32.4,25.63a100.28,100.28,0,0,1-46.55,10.87q-30.56,0-49.94-18.54t-19.38-46.39q0-30.52,19.07-47.31t50-20.69Zm-77.73,99.72q11.69,9.21,27.68,9.21a84.31,84.31,0,0,0,37.73-9q30.76-14.95,30.76-48.94V244.21a62.83,62.83,0,0,1-17.4,7.2,146.21,146.21,0,0,1-20.88,4.11l-22.31,2.87q-20.06,2.66-30.16,8.39-17.13,9.62-17.12,30.69Q259.94,313.42,271.63,322.63Zm215.53-35.7q1.67,18.46,9.42,28.3,14.23,17.84,49.4,17.84,20.93,0,36.84-8.92t15.91-27.58q0-14.15-12.71-21.53-8.13-4.51-32.09-10.46l-29.8-7.38q-28.55-7-42.1-15.58-24.18-15-24.18-41.42,0-31.17,22.76-50.45t61.2-19.28q50.29,0,72.53,29.12,13.92,18.46,13.52,39.78H593a41.82,41.82,0,0,0-9-22.64q-13-14.48-45.13-14.48-21.41,0-32.43,8t-11,21q0,14.3,14.48,22.89,8.35,5.11,24.65,9l24.86,5.95q40.53,9.64,54.32,18.66,21.53,14.15,21.53,44.5,0,29.33-22.53,50.65t-68.62,21.33q-49.62,0-70.28-22.25t-22.11-55.06ZM674.39,54.58h35.48V229.49l94.66-93.29h47.15l-84.41,81.66,89.15,138H809.25L740.17,244.07l-30.31,29.33v82.44H674.39ZM907.14,286.93q1.67,18.46,9.42,28.3,14.23,17.84,49.4,17.84,20.93,0,36.84-8.92t15.91-27.58q0-14.15-12.71-21.53-8.13-4.51-32.09-10.46l-29.8-7.38q-28.55-7-42.1-15.58-24.18-15-24.18-41.42,0-31.17,22.76-50.45t61.2-19.28q50.29,0,72.53,29.12,13.92,18.46,13.52,39.78H1013a41.81,41.81,0,0,0-9-22.64q-13-14.48-45.13-14.48-21.41,0-32.43,8t-11,21q0,14.3,14.48,22.89,8.35,5.11,24.65,9l24.86,5.95q40.53,9.64,54.32,18.66,21.53,14.15,21.53,44.5,0,29.33-22.53,50.65t-68.62,21.33q-49.62,0-70.28-22.25t-22.11-55.06ZM1232.49,136.2h40.81q-7.8,21.13-34.66,96.43Q1218.54,289.26,1205,325q-32,84-45.07,102.46t-45.07,18.44a88.38,88.38,0,0,1-12-.62,94.65,94.65,0,0,1-10.35-2.26V409.36a127.52,127.52,0,0,0,13.92,3.28,54.26,54.26,0,0,0,7.58.62q10.23,0,15-3.38a31.21,31.21,0,0,0,8.09-8.29q1-1.64,7.37-16.78t9.22-22.51L1072.53,136.2h41.83l58.86,178.9Z"/></svg>